<svg width="131" height="131" xmlns="http://www.w3.org/2000/svg" xmlns:xlink="http://www.w3.org/1999/xlink" xml:space="preserve" overflow="hidden"><defs><clipPath id="clip0"><path d="M694.693 521.992C710.194 521.992 722.759 534.558 722.759 550.059L722.759 623.432C722.759 638.933 710.194 651.499 694.693 651.499L621.319 651.499C605.819 651.499 593.253 638.933 593.253 623.432L593.253 550.059C593.253 534.558 605.819 521.992 621.319 521.992Z"/></clipPath></defs><g transform="translate(-592 -521)"><g clip-path="url(#clip0)"><path d="M720.775 651.749 594.205 651.749C593.098 651.749 592.2 650.852 592.2 649.745L592.2 521.211 722.729 521.211 722.729 649.765C722.729 650.872 721.832 651.769 720.725 651.769" fill="#E8420F"/><path d="M592.231 620.626 722.769 620.626 722.769 651.769 592.231 651.769Z" fill="#FFFFFF"/><path d="M592.231 521.231 722.769 521.231 722.769 651.769 592.231 651.769Z" stroke="#ABADAF" stroke-width="0.461091" stroke-miterlimit="10" fill="none"/><path d="M664.361 570.888C663.801 570.575 663.168 570.414 662.527 570.417 662.156 570.417 661.855 570.357 661.645 570.317 661.466 570.295 661.295 570.234 661.144 570.136 661.021 570.048 660.951 569.906 660.953 569.755 660.961 569.528 661.109 569.328 661.324 569.254 661.611 569.141 661.918 569.09 662.226 569.104 662.554 569.082 662.881 569.155 663.168 569.314 663.369 569.449 663.506 569.658 663.549 569.896L664.672 569.896C664.633 569.427 664.391 568.999 664.01 568.723 663.48 568.382 662.855 568.22 662.226 568.262 661.779 568.253 661.335 568.324 660.913 568.472 660.584 568.576 660.293 568.77 660.071 569.034 659.877 569.27 659.773 569.569 659.78 569.876 659.773 570.282 659.979 570.662 660.322 570.878 660.861 571.188 661.473 571.347 662.096 571.339 662.497 571.339 662.818 571.409 663.038 571.449 663.225 571.477 663.401 571.554 663.549 571.67 663.668 571.781 663.731 571.939 663.72 572.101 663.711 572.369 663.534 572.602 663.279 572.682 662.947 572.824 662.587 572.889 662.226 572.873 661.294 572.873 660.783 572.532 660.682 571.87L659.58 571.87C659.619 572.401 659.882 572.889 660.302 573.214 660.896 573.599 661.6 573.779 662.306 573.725 662.797 573.737 663.286 573.663 663.75 573.504 664.107 573.383 664.425 573.168 664.672 572.883 664.88 572.617 664.991 572.288 664.983 571.951 665.006 571.52 664.8 571.108 664.441 570.868" fill="#FFFFFF"/><path d="M667.078 568.372 665.925 568.372 665.925 573.635 667.078 573.635 667.078 571.389 669.674 571.389 669.674 573.635 670.827 573.635 670.827 568.372 669.674 568.372 669.674 570.467 667.078 570.467 667.078 568.372Z" fill="#FFFFFF"/><path d="M674.455 572.803C674.069 572.821 673.692 572.687 673.403 572.432 673.133 572.194 672.983 571.849 672.992 571.49L672.992 568.372 671.839 568.372 671.839 571.439C671.832 571.862 671.942 572.279 672.16 572.642 672.38 572.994 672.697 573.276 673.072 573.454 673.494 573.655 673.958 573.755 674.425 573.745 674.895 573.753 675.362 573.654 675.788 573.454 676.162 573.279 676.477 572.996 676.69 572.642 676.908 572.279 677.018 571.862 677.011 571.439L677.011 568.372 675.909 568.372 675.909 571.49C675.923 571.849 675.771 572.197 675.498 572.432 675.222 572.676 674.864 572.809 674.495 572.803" fill="#FFFFFF"/><path d="M680.229 573.635 681.382 573.635 681.382 569.294 683.567 569.294 683.567 568.372 678.034 568.372 678.034 569.294 680.229 569.294 680.229 573.635Z" fill="#FFFFFF"/><path d="M686.774 573.635 687.927 573.635 687.927 569.294 690.112 569.294 690.112 568.372 684.589 568.372 684.589 569.294 686.774 569.294 686.774 573.635Z" fill="#FFFFFF"/><path d="M692.287 568.372 691.135 568.372 691.135 573.635 695.695 573.635 695.695 572.712 692.287 572.712 692.287 568.372Z" fill="#FFFFFF"/><path d="M701.329 569.294 701.329 568.372 696.718 568.372 696.718 573.635 701.329 573.635 701.329 572.712 697.871 572.712 697.871 571.389 701.329 571.389 701.329 570.467 697.871 570.467 697.871 569.294 701.329 569.294Z" fill="#FFFFFF"/><path d="M646.89 569.294 649.075 569.294 649.075 573.635 650.228 573.635 650.228 569.294 652.413 569.294 652.413 568.372 646.89 568.372 646.89 569.294Z" fill="#FFFFFF"/><path d="M635.964 571.449C636.296 571.359 636.591 571.166 636.806 570.898 637.011 570.623 637.121 570.289 637.117 569.946 637.124 569.366 636.796 568.835 636.275 568.583 635.992 568.439 635.679 568.367 635.363 568.372L632.355 568.372 632.355 573.635 633.518 573.635 633.518 571.53 634.601 571.53 635.974 573.635 637.347 573.635 635.814 571.49ZM635.744 570.447C635.598 570.569 635.413 570.633 635.222 570.627L633.518 570.627 633.518 569.314 635.242 569.314C635.433 569.308 635.618 569.372 635.764 569.495 635.895 569.616 635.968 569.787 635.964 569.966 635.97 570.147 635.897 570.323 635.764 570.447" fill="#FFFFFF"/><path d="M638.35 568.372 639.492 568.372 639.492 573.625 638.35 573.625Z" fill="#FFFFFF"/><path d="M645.316 570.888C644.759 570.575 644.13 570.413 643.492 570.417 643.111 570.417 642.81 570.357 642.6 570.317 642.424 570.294 642.257 570.232 642.109 570.136 641.984 570.05 641.912 569.907 641.918 569.755 641.92 569.526 642.07 569.323 642.289 569.254 642.573 569.142 642.876 569.091 643.181 569.104 643.529 569.07 643.879 569.144 644.183 569.314 644.382 569.449 644.516 569.659 644.554 569.896L645.677 569.896C645.642 569.429 645.403 569 645.025 568.723 644.491 568.384 643.863 568.223 643.231 568.262 642.784 568.253 642.339 568.324 641.918 568.472 641.592 568.581 641.302 568.774 641.076 569.034 640.887 569.273 640.783 569.57 640.785 569.876 640.778 570.284 640.989 570.666 641.337 570.878 641.872 571.188 642.482 571.347 643.101 571.339 643.417 571.359 643.731 571.396 644.043 571.449 644.234 571.476 644.413 571.553 644.564 571.67 644.679 571.784 644.74 571.94 644.735 572.101 644.723 572.368 644.547 572.599 644.294 572.682 643.958 572.825 643.595 572.89 643.231 572.873 642.309 572.873 641.788 572.532 641.688 571.87L640.535 571.87C640.569 572.402 640.833 572.892 641.257 573.214 641.849 573.602 642.555 573.783 643.261 573.725 643.755 573.738 644.247 573.663 644.715 573.504 645.068 573.381 645.382 573.166 645.627 572.883 645.835 572.617 645.946 572.288 645.938 571.951 645.965 571.519 645.758 571.106 645.396 570.868" fill="#FFFFFF"/><path d="M612.769 569.294 614.954 569.294 614.954 573.635 616.107 573.635 616.107 569.294 618.292 569.294 618.292 568.372 612.769 568.372 612.769 569.294Z" fill="#FFFFFF"/><path d="M630.22 571.49C630.229 571.849 630.079 572.194 629.809 572.432 629.199 572.927 628.325 572.927 627.714 572.432 627.445 572.194 627.294 571.849 627.304 571.49L627.304 568.372 626.151 568.372 626.151 571.439C626.143 571.862 626.254 572.279 626.472 572.642 626.688 572.994 627.001 573.276 627.374 573.454 627.8 573.654 628.266 573.753 628.737 573.745 629.204 573.755 629.668 573.655 630.09 573.454 630.467 573.279 630.785 572.997 631.002 572.642 631.22 572.279 631.33 571.862 631.323 571.439L631.323 568.372 630.22 568.372Z" fill="#FFFFFF"/><path d="M623.715 568.623C623.263 568.378 622.755 568.254 622.242 568.262 621.726 568.257 621.217 568.377 620.758 568.613 619.438 569.325 618.945 570.973 619.657 572.293 619.909 572.759 620.292 573.142 620.758 573.394L620.758 573.394C621.217 573.63 621.726 573.75 622.242 573.745 622.754 573.75 623.26 573.63 623.715 573.394 625.041 572.623 625.49 570.923 624.719 569.598 624.719 569.597 624.718 569.596 624.717 569.595 624.482 569.175 624.135 568.828 623.715 568.593M623.495 572.311 623.495 572.311C622.797 572.98 621.696 572.98 620.999 572.311 620.398 571.543 620.398 570.464 620.999 569.695 621.696 569.027 622.797 569.027 623.495 569.695 624.11 570.459 624.11 571.548 623.495 572.311" fill="#FFFFFF"/><path d="M681.632 538.161 691.265 538.161C691.359 538.161 691.435 538.084 691.435 537.99L691.435 536.737C691.43 536.645 691.357 536.572 691.265 536.567L687.596 536.567C687.539 536.566 687.486 536.536 687.456 536.487L687.356 536.106C687.318 536.062 687.263 536.037 687.205 536.036L685.301 536.036C685.207 536.038 685.132 536.116 685.134 536.21 685.135 536.241 685.144 536.27 685.16 536.296 685.231 536.567 685.16 536.557 685.02 536.557L681.632 536.557C681.54 536.562 681.467 536.635 681.462 536.727L681.462 537.98C681.462 538.074 681.538 538.151 681.632 538.151" fill="#FFFFFF"/><path d="M691.245 538.702 681.632 538.702C681.537 538.707 681.462 538.786 681.462 538.882L681.462 540.125C681.462 540.219 681.538 540.296 681.632 540.296L691.265 540.296C691.353 540.302 691.429 540.234 691.435 540.146 691.435 540.139 691.435 540.132 691.435 540.125L691.435 538.882C691.441 538.788 691.369 538.708 691.275 538.702 691.272 538.702 691.268 538.702 691.265 538.702" fill="#FFFFFF"/><path d="M681.632 542.421 691.265 542.421C691.359 542.421 691.435 542.345 691.435 542.25L691.435 541.007C691.435 540.913 691.359 540.837 691.265 540.837L681.632 540.837C681.544 540.831 681.468 540.898 681.462 540.986 681.462 540.993 681.462 541 681.462 541.007L681.462 542.25C681.456 542.339 681.523 542.415 681.611 542.421 681.618 542.421 681.625 542.421 681.632 542.421" fill="#FFFFFF"/><path d="M682.484 547.202 690.413 547.202C690.966 547.202 691.415 546.753 691.415 546.2L691.415 543.984C691.415 543.431 690.966 542.982 690.413 542.982L682.484 542.982C681.931 542.982 681.482 543.431 681.482 543.984L681.482 546.18C681.482 546.733 681.931 547.182 682.484 547.182M683.086 544.566 689.801 544.566 689.801 545.568 683.086 545.568Z" fill="#FFFFFF"/><path d="M701.168 544.225 692.698 545.157C692.626 545.157 692.568 545.215 692.568 545.287L692.568 547.092C692.567 547.169 692.629 547.233 692.707 547.233 692.714 547.233 692.721 547.233 692.728 547.232L701.198 546.3C701.268 546.29 701.32 546.23 701.319 546.16L701.319 544.355C701.32 544.283 701.262 544.224 701.19 544.223 701.182 544.223 701.175 544.224 701.168 544.225" fill="#FFFFFF"/><path d="M692.758 543.594C692.861 543.646 692.975 543.67 693.089 543.664L701.108 543.664C701.198 543.659 701.269 543.583 701.269 543.493L701.269 540.747C701.269 540.659 701.196 540.586 701.108 540.586L699.154 540.586C699.07 540.585 698.998 540.644 698.983 540.727L698.923 541.258C698.918 541.442 698.767 541.589 698.582 541.589L696.086 541.589 700.888 536.216C700.927 536.177 700.926 536.113 700.887 536.075 700.868 536.057 700.844 536.046 700.818 536.046L698.332 536.046C698.289 536.031 698.243 536.031 698.201 536.046 697.65 536.647 697.069 537.268 696.487 537.88L695.485 537.88C695.485 537.88 695.485 537.88 695.485 537.88L697.119 536.196C697.158 536.157 697.157 536.093 697.118 536.055 697.099 536.037 697.075 536.026 697.049 536.026L694.442 536.026C694.407 536.01 694.367 536.01 694.332 536.026 692.528 538.03 692.518 538.03 692.518 538.131L692.518 539.133C692.524 539.233 692.586 539.322 692.678 539.363 692.769 539.406 692.869 539.427 692.969 539.424L694.974 539.424C693.59 540.877 692.518 541.99 692.518 542.03L692.518 543.223C692.528 543.338 692.601 543.439 692.708 543.483" fill="#FFFFFF"/><path d="M671.719 547.232 680.189 546.3C680.26 546.291 680.315 546.232 680.319 546.16L680.319 544.355C680.314 544.278 680.248 544.219 680.171 544.224 680.167 544.224 680.163 544.224 680.159 544.225L671.689 545.157C671.62 545.162 671.568 545.219 671.568 545.287L671.568 547.092C671.562 547.164 671.614 547.227 671.687 547.233 671.698 547.234 671.708 547.234 671.719 547.232" fill="#FFFFFF"/><path d="M671.749 543.594C671.851 543.645 671.965 543.669 672.079 543.664L680.098 543.664C680.191 543.659 680.264 543.585 680.269 543.493L680.269 540.747C680.264 540.656 680.189 540.586 680.098 540.586L678.094 540.586C678.013 540.585 677.943 540.646 677.933 540.727L677.863 541.258C677.863 541.44 677.715 541.589 677.532 541.589L675.036 541.589 679.838 536.216C679.877 536.177 679.877 536.113 679.837 536.075 679.816 536.054 679.787 536.043 679.758 536.046L677.272 536.046C677.23 536.032 677.184 536.032 677.141 536.046 676.6 536.647 676.009 537.268 675.437 537.88L674.435 537.88C674.435 537.88 674.435 537.88 674.435 537.88L676.069 536.196C676.108 536.157 676.107 536.093 676.068 536.055 676.049 536.037 676.025 536.026 675.999 536.026L673.403 536.026C673.368 536.01 673.327 536.01 673.292 536.026 671.478 538.03 671.478 538.03 671.478 538.131L671.478 539.133C671.484 539.233 671.546 539.322 671.638 539.363 671.729 539.407 671.829 539.428 671.929 539.424L673.934 539.424C672.611 540.987 671.608 542.08 671.608 542.14L671.608 543.333C671.611 543.448 671.683 543.55 671.789 543.594" fill="#FFFFFF"/><path d="M698.863 554.179C699.865 554.229 700.577 554.179 700.968 553.747 701.259 553.357 701.382 552.866 701.309 552.384L701.309 548.375C701.315 548.164 701.148 547.99 700.938 547.984 700.932 547.984 700.925 547.984 700.918 547.984L671.969 547.984C671.748 547.984 671.568 548.163 671.568 548.385L671.568 550.209C671.568 550.431 671.748 550.61 671.969 550.61L698.672 550.61 698.672 551.552 671.959 551.552C671.749 551.546 671.574 551.713 671.568 551.923 671.568 551.929 671.568 551.936 671.568 551.943L671.568 557.436C671.562 557.647 671.729 557.821 671.939 557.827 671.946 557.827 671.952 557.827 671.959 557.827L698.672 557.827 698.672 558.83 677.151 558.83C677.102 558.825 677.057 558.86 677.052 558.91 677.05 558.927 677.053 558.944 677.061 558.96L678.184 561.466C678.2 561.502 678.235 561.525 678.274 561.526L698.512 561.526C699.377 561.621 700.244 561.366 700.918 560.814 701.242 560.4 701.383 559.871 701.309 559.351L701.309 555.612C701.309 555.396 701.133 555.221 700.918 555.221L674.154 555.221 674.154 554.219Z" fill="#FFFFFF"/><path d="M669.604 549.277 665.714 549.277C665.656 549.277 665.605 549.313 665.584 549.367L661.334 561.396C661.306 561.462 661.337 561.538 661.403 561.566 661.423 561.574 661.443 561.578 661.464 561.576L665.354 561.576C665.415 561.58 665.472 561.544 665.494 561.486L669.734 549.457C669.768 549.394 669.743 549.315 669.68 549.281 669.657 549.269 669.63 549.264 669.604 549.267" fill="#FFFFFF"/><path d="M661.585 546.009C663.607 546.557 665.693 546.837 667.789 546.841 668.331 546.841 668.882 546.821 669.443 546.781 669.514 546.772 669.57 546.713 669.574 546.641L669.574 543.203C669.569 543.123 669.502 543.062 669.423 543.062 666.831 543.125 664.244 542.825 661.735 542.17L661.735 542.17C661.525 542.17 661.514 542.31 661.514 542.31L661.514 542.31 661.514 542.31C661.509 542.326 661.509 542.345 661.514 542.361L661.514 545.899C661.516 545.959 661.557 546.012 661.615 546.029" fill="#FFFFFF"/><path d="M661.585 539.985C663.606 540.537 665.693 540.821 667.789 540.827 668.331 540.827 668.882 540.827 669.443 540.757 669.516 540.752 669.574 540.691 669.574 540.616L669.574 537.178C669.569 537.099 669.502 537.038 669.423 537.038 666.832 537.108 664.243 536.811 661.735 536.156L661.735 536.156C661.525 536.156 661.514 536.296 661.514 536.296L661.514 536.296C661.51 536.312 661.51 536.33 661.514 536.346L661.514 539.885C661.512 539.947 661.555 540.001 661.615 540.015" fill="#FFFFFF"/><path d="M649.185 548.265 616.368 548.265C614.879 548.265 613.671 549.471 613.671 550.961 613.671 550.964 613.671 550.968 613.671 550.971L613.671 558.84C613.671 560.334 614.883 561.546 616.378 561.546L649.175 561.546C650.67 561.546 651.882 560.334 651.882 558.84L651.882 550.971C651.888 549.481 650.685 548.271 649.195 548.265 649.192 548.265 649.188 548.265 649.185 548.265M647.662 557.286 617.891 557.286 617.891 552.474 647.662 552.474Z" fill="#FFFFFF"/><path d="M652.814 542.361C652.814 542.16 652.754 542.09 652.603 542.07 651.924 542.004 651.253 541.872 650.599 541.679 648.043 541.055 645.923 539.276 644.865 536.868 644.807 536.72 644.663 536.624 644.504 536.627L640.204 536.627C639.983 536.627 639.803 536.807 639.804 537.029 639.804 537.08 639.814 537.131 639.833 537.178 640.585 539.037 641.945 540.585 643.692 541.569L643.803 541.629C643.886 541.672 643.939 541.756 643.943 541.849 643.943 541.988 643.831 542.1 643.692 542.1L623.003 542.1C622.788 542.083 622.6 542.243 622.583 542.459 622.582 542.476 622.581 542.494 622.582 542.511 622.582 543.513 622.582 544.877 622.582 545.869 622.57 546.079 622.73 546.259 622.94 546.272 622.961 546.273 622.982 546.272 623.003 546.27L651.15 546.27C652.067 546.233 652.794 545.483 652.804 544.566L652.804 544.566 652.804 544.566 652.804 544.566C652.804 543.704 652.804 542.772 652.804 542.411" fill="#FFFFFF"/><path d="M628.577 536.326C628.647 536.256 628.657 536.186 628.577 536.126 628.496 536.066 628.406 536.026 628.226 536.026L623.384 536.026C623.135 536.021 622.889 536.084 622.673 536.206 622.633 536.233 622.596 536.263 622.562 536.296L612.689 545.949C612.622 546.007 612.616 546.109 612.675 546.176 612.679 546.181 612.684 546.186 612.689 546.19 612.759 546.27 612.859 546.28 613.04 546.28L617.741 546.28C617.898 546.292 618.055 546.292 618.212 546.28 618.399 546.246 618.573 546.159 618.713 546.029Z" fill="#FFFFFF"/><path d="M627.654 582.876 622.582 582.876 623.464 580.591C623.492 580.519 623.456 580.438 623.383 580.41 623.368 580.404 623.351 580.401 623.334 580.401L619.425 580.401C619.365 580.402 619.311 580.437 619.285 580.491L618.412 582.876 613.21 582.876C612.994 582.87 612.815 583.041 612.809 583.257 612.809 583.263 612.809 583.27 612.809 583.277L612.809 586.806C612.804 587.021 612.974 587.201 613.19 587.207 613.197 587.207 613.203 587.207 613.21 587.207L616.829 587.207 615.826 590.144 615.756 590.314C615.756 590.314 615.756 590.414 615.686 590.464 615.616 590.515 615.686 590.464 615.686 590.464 615.596 590.665 615.486 590.956 615.345 591.286 615.341 591.329 615.341 591.374 615.345 591.417L615.345 591.417 615.275 591.597 615.215 591.747 615.215 591.818C615.155 591.948 615.105 592.078 615.044 592.219L615.044 592.289 614.954 592.519 614.954 592.579C614.954 592.64 614.954 592.69 614.884 592.75 614.882 592.793 614.882 592.837 614.884 592.88L614.824 593.01C614.805 593.066 614.781 593.12 614.754 593.171 614.754 593.171 614.754 593.241 614.754 593.281 614.721 593.345 614.694 593.412 614.674 593.482 614.67 593.512 614.67 593.542 614.674 593.572L614.593 593.762C614.588 593.795 614.588 593.829 614.593 593.862L614.503 594.053C614.503 594.053 614.503 594.053 614.503 594.103L614.413 594.303 614.413 594.394 614.333 594.594 614.333 594.674C614.31 594.742 614.284 594.81 614.253 594.875L614.253 594.955 614.162 595.166 614.162 595.166 614.082 595.346 614.082 595.426C614.082 595.486 614.082 595.546 614.012 595.597L614.012 595.657 613.932 595.837C613.932 595.837 613.932 595.837 613.932 595.887L613.852 596.068C613.852 596.068 613.852 596.068 613.852 596.068 613.852 596.068 613.802 596.178 613.782 596.238L613.782 596.238C613.754 596.286 613.731 596.336 613.711 596.388L613.711 596.388 613.641 596.529 613.641 596.529 613.581 596.649 613.581 596.649C613.587 596.685 613.587 596.723 613.581 596.759L613.581 596.759C613.585 596.789 613.585 596.819 613.581 596.849L613.581 596.849 613.581 596.92 613.581 597.03C614.654 597.481 616.588 598.393 618.743 599.456 617.346 600.786 615.687 601.809 613.872 602.463 613.693 602.524 613.575 602.695 613.581 602.884L613.581 606.332C613.579 606.57 613.77 606.765 614.008 606.767 614.046 606.768 614.085 606.763 614.122 606.753 617.437 605.828 620.417 603.974 622.713 601.41 624.657 602.413 626.572 603.355 628.105 604.137 628.322 604.248 628.588 604.162 628.699 603.944 628.732 603.88 628.748 603.808 628.747 603.736L628.747 600.167C628.744 599.995 628.643 599.84 628.486 599.766L625.209 598.233C626.627 596.083 627.677 593.711 628.316 591.216 628.316 591.136 628.506 590.214 628.567 589.893 628.599 589.711 628.623 589.526 628.637 589.342 628.664 589.094 628.486 588.871 628.239 588.844 628.221 588.842 628.203 588.841 628.186 588.841L624.096 588.841C623.869 588.839 623.675 589.006 623.645 589.232 623.585 589.652 623.525 590.043 623.515 590.063 623.454 590.344 623.374 590.625 623.294 590.915L623.294 590.915C622.701 592.889 621.794 594.754 620.608 596.439L617.881 595.156C617.813 595.123 617.783 595.044 617.811 594.975L620.888 587.187 627.654 587.187C627.87 587.193 628.05 587.022 628.055 586.806 628.056 586.8 628.056 586.793 628.055 586.786L628.055 583.277C628.061 583.062 627.891 582.882 627.675 582.876 627.668 582.876 627.661 582.876 627.654 582.876" fill="#FFFFFF"/><path d="M652.764 592.73 647.551 592.73 647.551 588.369C647.556 588.326 647.578 588.287 647.612 588.259L652.764 584.711C652.803 584.684 652.826 584.639 652.824 584.591L652.824 580.802C652.83 580.586 652.659 580.407 652.443 580.401 652.44 580.401 652.436 580.401 652.433 580.401L630.15 580.401C629.929 580.401 629.749 580.58 629.749 580.802L629.749 584.27C629.749 584.491 629.929 584.671 630.15 584.671L645.547 584.671C645.624 584.672 645.686 584.736 645.685 584.813 645.684 584.861 645.659 584.906 645.617 584.931L643.321 586.264C643.28 586.29 643.257 586.337 643.261 586.385L643.261 592.73 629.91 592.73C629.819 592.735 629.749 592.81 629.749 592.9L629.749 597.06C629.749 597.148 629.821 597.22 629.91 597.22L643.291 597.22 643.291 601.48C643.286 601.554 643.225 601.611 643.151 601.611L630.511 601.611C630.434 601.612 630.372 601.675 630.372 601.752 630.372 601.776 630.379 601.8 630.391 601.821L632.396 605.831C632.421 605.874 632.466 605.901 632.516 605.901L644.073 605.901C646.024 605.895 647.602 604.313 647.602 602.363L647.602 597.21 652.804 597.21C652.892 597.21 652.964 597.138 652.964 597.05L652.964 592.9C652.964 592.81 652.894 592.735 652.804 592.73" fill="#FFFFFF"/><path d="M674.615 580.621 674.615 584.631C674.622 584.697 674.571 584.755 674.505 584.761 674.502 584.761 674.498 584.761 674.495 584.761L661.625 586.535C661.546 586.535 661.479 586.474 661.474 586.395L661.474 582.385C661.478 582.313 661.534 582.254 661.605 582.245L674.475 580.481C674.547 580.475 674.609 580.529 674.615 580.6 674.617 580.607 674.617 580.614 674.615 580.621" fill="#FFFFFF"/><path d="M674.495 587.447 661.585 589.191C661.512 589.191 661.454 589.25 661.454 589.322 661.454 589.325 661.454 589.329 661.454 589.332L661.454 593.341C661.453 593.413 661.511 593.472 661.583 593.474 661.591 593.474 661.598 593.472 661.605 593.471L666.256 592.84 666.256 605.49C666.256 605.7 666.426 605.871 666.637 605.871L670.075 605.871C670.285 605.871 670.456 605.7 670.456 605.49L670.456 592.259 674.465 591.707C674.534 591.697 674.586 591.637 674.585 591.567L674.585 587.557C674.585 587.48 674.522 587.417 674.445 587.417" fill="#FFFFFF"/><path d="M693.26 582.335C693.232 582.281 693.254 582.215 693.308 582.187 693.324 582.179 693.342 582.175 693.36 582.175L696.668 582.175C696.768 582.174 696.86 582.228 696.908 582.315 697.695 583.671 698.99 584.656 700.507 585.052L700.597 585.052 701.349 585.262C701.407 585.279 701.468 585.245 701.485 585.186 701.487 585.178 701.489 585.17 701.489 585.162L701.489 580.781C701.489 580.599 701.341 580.451 701.158 580.451L677.101 580.451C676.919 580.451 676.771 580.599 676.771 580.781L676.771 584.46C676.771 584.643 676.919 584.791 677.101 584.791L695.304 584.791C695.333 584.791 695.355 584.769 695.355 584.741 695.355 584.713 695.333 584.691 695.304 584.691 694.416 584.093 693.704 583.27 693.24 582.305" fill="#FFFFFF"/><path d="M701.028 587.187 677.322 587.187C677.111 587.181 676.937 587.347 676.931 587.557 676.931 587.564 676.931 587.571 676.931 587.578L676.931 591.316C676.925 591.532 677.096 591.711 677.312 591.717 677.315 591.717 677.319 591.717 677.322 591.717L693.36 591.717 693.36 601.541C693.366 601.613 693.312 601.675 693.24 601.681 693.237 601.681 693.233 601.681 693.23 601.681L680.73 601.681C680.658 601.675 680.596 601.728 680.59 601.8 680.587 601.828 680.594 601.857 680.61 601.881L682.544 605.811C682.569 605.854 682.614 605.881 682.665 605.881L694.112 605.881C696.043 605.881 697.61 604.314 697.61 602.383L697.61 591.717 701.028 591.717C701.25 591.723 701.433 591.548 701.439 591.326 701.439 591.323 701.439 591.319 701.439 591.316L701.439 587.608C701.439 587.386 701.26 587.207 701.038 587.207 701.035 587.207 701.031 587.207 701.028 587.207" fill="#FFFFFF"/><path d="M641.006 629.988 644.755 629.988 644.755 642.467 641.006 642.467Z" fill="#231815"/><path d="M636.776 634.93C636.345 633.867 635.944 632.845 635.683 632.333 634.831 630.669 633.679 629.777 631.985 629.777 630.291 629.777 629.148 630.669 628.296 632.333 628.025 632.845 627.634 633.867 627.193 634.93 626.341 636.934 625.68 638.207 624.387 638.548L624.387 642.638C627.875 642.097 629.398 639.841 630.571 636.624 630.752 636.092 630.982 635.471 631.113 635.11 631.383 634.408 631.574 633.997 631.985 633.997 632.396 633.997 632.596 634.408 632.857 635.11L633.408 636.624C634.561 639.851 636.094 642.107 639.583 642.638L639.583 638.548C638.3 638.207 637.638 636.974 636.776 634.93" fill="#231815"/><path d="M625.61 633.466 625.61 629.988 612.839 629.988 612.839 633.466 617.35 633.466 617.35 642.467 621.099 642.467 621.099 633.466 625.61 633.466Z" fill="#231815"/><path d="M697.59 629.988 697.59 638.478C697.59 638.719 697.5 638.829 697.359 638.829 697.219 638.829 697.039 638.588 696.798 638.057 696.116 636.584 695.375 634.93 694.613 633.476 693.61 631.542 692.718 629.818 690.303 629.818 687.887 629.818 686.684 631.441 686.684 634.178L686.684 642.467 690.433 642.467 690.433 633.987C690.433 633.737 690.523 633.627 690.653 633.627 690.784 633.627 690.984 633.867 691.225 634.398 691.906 635.882 692.648 637.526 693.4 638.989 694.402 640.914 695.294 642.638 697.72 642.638 700.146 642.638 701.339 641.014 701.339 638.288L701.339 629.988Z" fill="#231815"/><path d="M665.253 637.415C665.253 638.037 665.143 638.548 664.662 638.548 664.181 638.548 663.76 637.546 662.928 635.351 662.336 633.847 661.925 632.845 661.675 632.343 660.827 630.262 658.452 629.262 656.37 630.11 655.356 630.523 654.55 631.328 654.137 632.343 653.886 632.875 653.465 633.877 652.884 635.351 652.052 637.506 651.691 638.548 651.14 638.548 650.589 638.548 650.549 638.037 650.549 637.415L650.549 629.988 646.8 629.988 646.8 638.097C646.8 641.014 648.413 642.638 650.809 642.638 653.646 642.638 654.819 640.713 655.981 637.566 656.432 636.353 656.713 635.561 656.924 635.1 657.134 634.639 657.455 633.987 657.926 633.987 658.397 633.987 658.608 634.438 658.868 635.1 659.129 635.762 659.359 636.353 659.82 637.566 661.013 640.713 662.146 642.638 664.993 642.638 667.418 642.638 669.002 641.014 669.002 638.097L669.002 629.988 665.253 629.988Z" fill="#231815"/><path d="M682.454 634.93C682.023 633.867 681.622 632.845 681.351 632.333 680.499 630.669 679.407 629.777 677.663 629.777 675.919 629.777 674.816 630.669 673.964 632.333 673.703 632.845 673.302 633.867 672.871 634.93 672.019 636.934 671.358 638.207 670.065 638.548L670.065 642.638C673.553 642.097 675.077 639.841 676.239 636.624L676.791 635.11C677.051 634.408 677.242 633.997 677.663 633.997 678.084 633.997 678.264 634.408 678.535 635.11L679.086 636.624C680.239 639.851 681.772 642.107 685.261 642.638L685.261 638.548C683.968 638.207 683.256 636.974 682.454 634.93" fill="#231815"/></g></g></svg>