<svg width="602" height="61" xmlns="http://www.w3.org/2000/svg" xmlns:xlink="http://www.w3.org/1999/xlink" xml:space="preserve" overflow="hidden"><g transform="translate(-30 -40)"><path d="M820.241 1089.86C819.254 1089.3 818.134 1089.01 816.998 1089.03L815.446 1088.86C815.132 1088.81 814.83 1088.69 814.559 1088.53 814.345 1088.37 814.22 1088.12 814.226 1087.86 814.232 1087.45 814.5 1087.09 814.891 1086.97 815.393 1086.77 815.931 1086.68 816.471 1086.7 817.051 1086.66 817.63 1086.79 818.134 1087.09 818.5 1087.31 818.744 1087.69 818.799 1088.11L820.795 1088.11C820.74 1087.28 820.313 1086.51 819.631 1086.03 818.683 1085.45 817.58 1085.17 816.471 1085.23 815.678 1085.21 814.891 1085.33 814.143 1085.59 813.569 1085.78 813.059 1086.12 812.674 1086.59 812.327 1087 812.139 1087.52 812.147 1088.06 812.122 1088.8 812.491 1089.51 813.117 1089.91 814.076 1090.44 815.155 1090.72 816.249 1090.72 816.798 1090.74 817.347 1090.8 817.885 1090.91 818.223 1090.94 818.542 1091.08 818.799 1091.3 819.016 1091.48 819.129 1091.76 819.104 1092.05 819.082 1092.52 818.775 1092.92 818.328 1093.07 817.741 1093.32 817.106 1093.43 816.471 1093.41 814.836 1093.41 813.921 1092.8 813.699 1091.63L811.676 1091.63C811.734 1092.57 812.2 1093.43 812.951 1093.99 813.974 1094.67 815.191 1094.99 816.416 1094.9 817.281 1094.92 818.143 1094.78 818.966 1094.51 819.592 1094.29 820.147 1093.91 820.574 1093.41 820.95 1092.94 821.147 1092.36 821.128 1091.77 821.167 1091.01 820.809 1090.29 820.185 1089.86" fill="#E8420F" transform="matrix(1.00053 0 0 1 -317.162 -994.757)"/><path d="M820.241 1089.86C819.254 1089.3 818.134 1089.01 816.998 1089.03L815.446 1088.86C815.132 1088.81 814.83 1088.69 814.559 1088.53 814.345 1088.37 814.22 1088.12 814.226 1087.86 814.232 1087.45 814.5 1087.09 814.891 1086.97 815.393 1086.77 815.931 1086.68 816.471 1086.7 817.051 1086.66 817.63 1086.79 818.134 1087.09 818.5 1087.31 818.744 1087.69 818.799 1088.11L820.795 1088.11C820.74 1087.28 820.313 1086.51 819.631 1086.03 818.683 1085.45 817.58 1085.17 816.471 1085.23 815.678 1085.21 814.891 1085.33 814.143 1085.59 813.569 1085.78 813.059 1086.12 812.674 1086.59 812.327 1087 812.139 1087.52 812.147 1088.06 812.122 1088.8 812.491 1089.51 813.117 1089.91 814.076 1090.44 815.155 1090.72 816.249 1090.72 816.798 1090.74 817.347 1090.8 817.885 1090.91 818.223 1090.94 818.542 1091.08 818.799 1091.3 819.016 1091.48 819.129 1091.76 819.104 1092.05 819.082 1092.52 818.775 1092.92 818.328 1093.07 817.741 1093.32 817.106 1093.43 816.471 1093.41 814.836 1093.41 813.921 1092.8 813.699 1091.63L811.676 1091.63C811.734 1092.57 812.2 1093.43 812.951 1093.99 813.974 1094.67 815.191 1094.99 816.416 1094.9 817.281 1094.92 818.143 1094.78 818.966 1094.51 819.592 1094.29 820.147 1093.91 820.574 1093.41 820.95 1092.94 821.147 1092.36 821.128 1091.77 821.178 1091.02 820.845 1090.3 820.241 1089.86Z" stroke="#E8420F" stroke-width="0.388057" stroke-miterlimit="10" fill="none" transform="matrix(1.00053 0 0 1 -317.162 -994.757)"/><path d="M478.058 50.2811 476.007 50.2811 476.007 59.5667 478.058 59.5667 478.058 55.603 482.632 55.603 482.632 59.5667 484.655 59.5667 484.655 50.2811 482.632 50.2811 482.632 53.9953 478.058 53.9953 478.058 50.2811Z" fill="#E8420F" transform="matrix(1.00053 0 0 1 30 40.384)"/><path d="M478.058 50.2811 476.007 50.2811 476.007 59.5667 478.058 59.5667 478.058 55.603 482.632 55.603 482.632 59.5667 484.655 59.5667 484.655 50.2811 482.632 50.2811 482.632 53.9953 478.058 53.9953 478.058 50.2811Z" stroke="#E8420F" stroke-width="0.388057" stroke-miterlimit="10" fill="none" transform="matrix(1.00053 0 0 1 30 40.384)"/><path d="M838.036 1093.24C837.368 1093.25 836.719 1093.03 836.207 1092.6 835.719 1092.17 835.447 1091.56 835.458 1090.91L835.458 1085.37 833.435 1085.37 833.435 1090.91C833.418 1091.66 833.621 1092.4 834.017 1093.04 834.397 1093.66 834.945 1094.15 835.597 1094.46 837.119 1095.16 838.87 1095.16 840.392 1094.46 841.052 1094.15 841.612 1093.66 842 1093.04 842.374 1092.4 842.565 1091.66 842.554 1090.91L842.554 1085.37 840.614 1085.37 840.614 1090.91C840.622 1091.55 840.362 1092.16 839.893 1092.6 839.372 1093.03 838.712 1093.26 838.036 1093.24" fill="#E8420F" transform="matrix(1.00053 0 0 1 -317.162 -994.757)"/><path d="M838.036 1093.24C837.368 1093.25 836.719 1093.03 836.207 1092.6 835.719 1092.17 835.447 1091.56 835.458 1090.91L835.458 1085.37 833.435 1085.37 833.435 1090.91C833.418 1091.66 833.621 1092.4 834.017 1093.04 834.397 1093.66 834.945 1094.15 835.597 1094.46 837.119 1095.16 838.87 1095.16 840.392 1094.46 841.052 1094.15 841.612 1093.66 842 1093.04 842.374 1092.4 842.565 1091.66 842.554 1090.91L842.554 1085.37 840.614 1085.37 840.614 1090.91C840.622 1091.55 840.362 1092.16 839.893 1092.6 839.372 1093.03 838.712 1093.26 838.036 1093.24Z" stroke="#E8420F" stroke-width="0.388057" stroke-miterlimit="10" fill="none" transform="matrix(1.00053 0 0 1 -317.162 -994.757)"/><path d="M501.258 59.5667 503.282 59.5667 503.282 51.9164 507.135 51.9164 507.135 50.2811 497.378 50.2811 497.378 51.9164 501.258 51.9164 501.258 59.5667Z" fill="#E8420F" transform="matrix(1.00053 0 0 1 30 40.384)"/><path d="M501.258 59.5667 503.282 59.5667 503.282 51.9164 507.135 51.9164 507.135 50.2811 497.378 50.2811 497.378 51.9164 501.258 51.9164 501.258 59.5667Z" stroke="#E8420F" stroke-width="0.388057" stroke-miterlimit="10" fill="none" transform="matrix(1.00053 0 0 1 30 40.384)"/><path d="M512.789 59.5667 514.84 59.5667 514.84 51.9164 518.693 51.9164 518.693 50.2811 508.936 50.2811 508.936 51.9164 512.789 51.9164 512.789 59.5667Z" fill="#E8420F" transform="matrix(1.00053 0 0 1 30 40.384)"/><path d="M512.789 59.5667 514.84 59.5667 514.84 51.9164 518.693 51.9164 518.693 50.2811 508.936 50.2811 508.936 51.9164 512.789 51.9164 512.789 59.5667Z" stroke="#E8420F" stroke-width="0.388057" stroke-miterlimit="10" fill="none" transform="matrix(1.00053 0 0 1 30 40.384)"/><path d="M522.518 50.2811 520.495 50.2811 520.495 59.5667 528.533 59.5667 528.533 57.959 522.518 57.959 522.518 50.2811Z" fill="#E8420F" transform="matrix(1.00053 0 0 1 30 40.384)"/><path d="M522.518 50.2811 520.495 50.2811 520.495 59.5667 528.533 59.5667 528.533 57.959 522.518 57.959 522.518 50.2811Z" stroke="#E8420F" stroke-width="0.388057" stroke-miterlimit="10" fill="none" transform="matrix(1.00053 0 0 1 30 40.384)"/><path d="M538.484 51.9164 538.484 50.2811 530.335 50.2811 530.335 59.5667 538.484 59.5667 538.484 57.959 532.386 57.959 532.386 55.603 538.484 55.603 538.484 53.9953 532.386 53.9953 532.386 51.9164 538.484 51.9164Z" fill="#E8420F" transform="matrix(1.00053 0 0 1 30 40.384)"/><path d="M538.484 51.9164 538.484 50.2811 530.335 50.2811 530.335 59.5667 538.484 59.5667 538.484 57.959 532.386 57.959 532.386 55.603 538.484 55.603 538.484 53.9953 532.386 53.9953 532.386 51.9164 538.484 51.9164Z" stroke="#E8420F" stroke-width="0.388057" stroke-miterlimit="10" fill="none" transform="matrix(1.00053 0 0 1 30 40.384)"/><path d="M442.412 51.9164 446.293 51.9164 446.293 59.5667 448.316 59.5667 448.316 51.9164 452.169 51.9164 452.169 50.2811 442.412 50.2811 442.412 51.9164Z" fill="#E8420F" transform="matrix(1.00053 0 0 1 30 40.384)"/><path d="M442.412 51.9164 446.293 51.9164 446.293 59.5667 448.316 59.5667 448.316 51.9164 452.169 51.9164 452.169 50.2811 442.412 50.2811 442.412 51.9164Z" stroke="#E8420F" stroke-width="0.388057" stroke-miterlimit="10" fill="none" transform="matrix(1.00053 0 0 1 30 40.384)"/><path d="M770.126 1090.83C770.714 1090.69 771.24 1090.35 771.623 1089.88 771.978 1089.39 772.163 1088.8 772.15 1088.19 772.166 1087.7 772.03 1087.2 771.761 1086.78 771.498 1086.36 771.124 1086.01 770.681 1085.78 770.182 1085.53 769.63 1085.41 769.073 1085.42L763.751 1085.42 763.751 1094.71 765.774 1094.71 765.774 1090.99 767.798 1090.99 770.237 1094.71 772.648 1094.71 769.877 1090.91ZM769.738 1089.03C769.489 1089.25 769.162 1089.37 768.823 1089.36L765.774 1089.36 765.774 1087.06 768.823 1087.06C769.156 1087.04 769.486 1087.15 769.738 1087.36 769.977 1087.57 770.11 1087.88 770.098 1088.19 770.115 1088.51 769.982 1088.82 769.738 1089.03" fill="#E8420F" transform="matrix(1.00053 0 0 1 -317.162 -994.757)"/><path d="M770.126 1090.83C770.714 1090.69 771.24 1090.35 771.623 1089.88 771.978 1089.39 772.163 1088.8 772.15 1088.19 772.166 1087.7 772.03 1087.2 771.761 1086.78 771.498 1086.36 771.124 1086.01 770.681 1085.78 770.182 1085.53 769.63 1085.41 769.073 1085.42L763.751 1085.42 763.751 1094.71 765.774 1094.71 765.774 1090.99 767.798 1090.99 770.237 1094.71 772.648 1094.71 769.877 1090.91ZM769.738 1089.03C769.489 1089.25 769.162 1089.37 768.823 1089.36L765.774 1089.36 765.774 1087.06 768.823 1087.06C769.156 1087.04 769.486 1087.15 769.738 1087.36 769.977 1087.57 770.11 1087.88 770.098 1088.19 770.115 1088.51 769.982 1088.82 769.738 1089.03Z" stroke="#E8420F" stroke-width="0.388057" stroke-miterlimit="10" fill="none" transform="matrix(1.00053 0 0 1 -317.162 -994.757)"/><path d="M427.361 50.2811 429.385 50.2811 429.385 59.5667 427.361 59.5667Z" fill="#E8420F" transform="matrix(1.00053 0 0 1 30 40.384)"/><path d="M427.361 50.2811 429.385 50.2811 429.385 59.5667 427.361 59.5667Z" stroke="#E8420F" stroke-width="0.388057" stroke-miterlimit="10" fill="none" transform="matrix(1.00053 0 0 1 30 40.384)"/><path d="M786.646 1089.86C785.659 1089.3 784.54 1089.01 783.403 1089.03L781.851 1088.86C781.538 1088.81 781.236 1088.69 780.964 1088.53 780.751 1088.37 780.626 1088.12 780.631 1087.86 780.637 1087.45 780.906 1087.09 781.297 1086.97 781.798 1086.77 782.336 1086.68 782.877 1086.7 783.456 1086.66 784.035 1086.79 784.54 1087.09 784.906 1087.31 785.149 1087.69 785.205 1088.11L787.201 1088.11C787.145 1087.28 786.718 1086.51 786.036 1086.03 785.089 1085.45 783.985 1085.17 782.877 1085.23 782.084 1085.21 781.297 1085.33 780.548 1085.59 779.974 1085.78 779.464 1086.12 779.079 1086.59 778.733 1087 778.544 1087.52 778.552 1088.06 778.528 1088.8 778.896 1089.51 779.523 1089.91 780.482 1090.44 781.56 1090.72 782.655 1090.72 783.215 1090.74 783.769 1090.8 784.318 1090.91 784.645 1090.95 784.955 1091.08 785.205 1091.3 785.421 1091.48 785.535 1091.76 785.51 1092.05 785.504 1092.52 785.191 1092.94 784.734 1093.07 784.146 1093.32 783.511 1093.43 782.877 1093.41 781.241 1093.41 780.326 1092.8 780.105 1091.63L778.081 1091.63C778.151 1092.56 778.614 1093.42 779.356 1093.99 780.379 1094.67 781.596 1094.99 782.821 1094.9 783.686 1094.92 784.548 1094.79 785.371 1094.51 785.998 1094.29 786.552 1093.91 786.979 1093.41 787.356 1092.94 787.555 1092.36 787.533 1091.77 787.572 1091.01 787.214 1090.29 786.591 1089.86" fill="#E8420F" transform="matrix(1.00053 0 0 1 -317.162 -994.757)"/><path d="M786.646 1089.86C785.659 1089.3 784.54 1089.01 783.403 1089.03L781.851 1088.86C781.538 1088.81 781.236 1088.69 780.964 1088.53 780.751 1088.37 780.626 1088.12 780.631 1087.86 780.637 1087.45 780.906 1087.09 781.297 1086.97 781.798 1086.77 782.336 1086.68 782.877 1086.7 783.456 1086.66 784.035 1086.79 784.54 1087.09 784.906 1087.31 785.149 1087.69 785.205 1088.11L787.201 1088.11C787.145 1087.28 786.718 1086.51 786.036 1086.03 785.089 1085.45 783.985 1085.17 782.877 1085.23 782.084 1085.21 781.297 1085.33 780.548 1085.59 779.974 1085.78 779.464 1086.12 779.079 1086.59 778.733 1087 778.544 1087.52 778.552 1088.06 778.528 1088.8 778.896 1089.51 779.523 1089.91 780.482 1090.44 781.56 1090.72 782.655 1090.72 783.215 1090.74 783.769 1090.8 784.318 1090.91 784.645 1090.95 784.955 1091.08 785.205 1091.3 785.421 1091.48 785.535 1091.76 785.51 1092.05 785.504 1092.52 785.191 1092.94 784.734 1093.07 784.146 1093.32 783.511 1093.43 782.877 1093.41 781.241 1093.41 780.326 1092.8 780.105 1091.63L778.081 1091.63C778.151 1092.56 778.614 1093.42 779.356 1093.99 780.379 1094.67 781.596 1094.99 782.821 1094.9 783.686 1094.92 784.548 1094.79 785.371 1094.51 785.998 1094.29 786.552 1093.91 786.979 1093.41 787.356 1092.94 787.555 1092.36 787.533 1091.77 787.583 1091.02 787.251 1090.3 786.646 1089.86Z" stroke="#E8420F" stroke-width="0.388057" stroke-miterlimit="10" fill="none" transform="matrix(1.00053 0 0 1 -317.162 -994.757)"/><path d="M382.236 51.9164 386.089 51.9164 386.089 59.5667 388.112 59.5667 388.112 51.9164 391.993 51.9164 391.993 50.2811 382.236 50.2811 382.236 51.9164Z" fill="#E8420F" transform="matrix(1.00053 0 0 1 30 40.384)"/><path d="M382.236 51.9164 386.089 51.9164 386.089 59.5667 388.112 59.5667 388.112 51.9164 391.993 51.9164 391.993 50.2811 382.236 50.2811 382.236 51.9164Z" stroke="#E8420F" stroke-width="0.388057" stroke-miterlimit="10" fill="none" transform="matrix(1.00053 0 0 1 30 40.384)"/><path d="M760.009 1090.91C760.026 1091.55 759.748 1092.16 759.261 1092.57 758.762 1093.03 758.105 1093.27 757.431 1093.24 756.752 1093.25 756.09 1093.01 755.574 1092.57 755.103 1092.15 754.839 1091.54 754.853 1090.91L754.853 1085.37 752.83 1085.37 752.83 1090.91C752.805 1091.66 752.999 1092.4 753.384 1093.04 753.772 1093.66 754.332 1094.15 754.992 1094.46 756.514 1095.16 758.265 1095.16 759.787 1094.46 760.439 1094.15 760.987 1093.66 761.367 1093.04 761.763 1092.4 761.966 1091.66 761.949 1090.91L761.949 1085.37 760.009 1085.37Z" fill="#E8420F" transform="matrix(1.00053 0 0 1 -317.162 -994.757)"/><path d="M760.009 1090.91C760.026 1091.55 759.748 1092.16 759.261 1092.57 758.762 1093.03 758.105 1093.27 757.431 1093.24 756.752 1093.25 756.09 1093.01 755.574 1092.57 755.103 1092.15 754.839 1091.54 754.853 1090.91L754.853 1085.37 752.83 1085.37 752.83 1090.91C752.805 1091.66 752.999 1092.4 753.384 1093.04 753.772 1093.66 754.332 1094.15 754.992 1094.46 756.514 1095.16 758.265 1095.16 759.787 1094.46 760.439 1094.15 760.987 1093.66 761.367 1093.04 761.763 1092.4 761.966 1091.66 761.949 1090.91L761.949 1085.37 760.009 1085.37Z" stroke="#E8420F" stroke-width="0.388057" stroke-miterlimit="10" fill="none" transform="matrix(1.00053 0 0 1 -317.162 -994.757)"/><path d="M748.534 1085.84C746.882 1085.03 744.947 1085.03 743.295 1085.84 741.762 1086.68 740.814 1088.3 740.828 1090.05 740.817 1090.93 741.047 1091.79 741.493 1092.55 741.934 1093.26 742.555 1093.86 743.295 1094.26 744.938 1095.11 746.89 1095.11 748.534 1094.26 749.279 1093.87 749.9 1093.27 750.335 1092.55 751.222 1091.01 751.222 1089.12 750.335 1087.58 749.911 1086.84 749.285 1086.24 748.534 1085.84M748.118 1092.38 748.118 1092.38C747.552 1092.98 746.749 1093.29 745.928 1093.24 745.099 1093.28 744.293 1092.97 743.711 1092.38 742.641 1091.02 742.641 1089.11 743.711 1087.75 744.29 1087.15 745.096 1086.83 745.928 1086.86 746.754 1086.82 747.558 1087.14 748.118 1087.75 749.188 1089.11 749.188 1091.02 748.118 1092.38" fill="#E8420F" transform="matrix(1.00053 0 0 1 -317.162 -994.757)"/><path d="M748.534 1085.84C746.882 1085.03 744.947 1085.03 743.295 1085.84 741.762 1086.68 740.814 1088.3 740.828 1090.05 740.817 1090.93 741.047 1091.79 741.493 1092.55 741.934 1093.26 742.555 1093.86 743.295 1094.26 744.938 1095.11 746.89 1095.11 748.534 1094.26 749.279 1093.87 749.9 1093.27 750.335 1092.55 751.222 1091.01 751.222 1089.12 750.335 1087.58 749.911 1086.84 749.285 1086.24 748.534 1085.84ZM748.118 1092.38 748.118 1092.38C747.552 1092.98 746.749 1093.29 745.928 1093.24 745.099 1093.28 744.293 1092.97 743.711 1092.38 742.641 1091.02 742.641 1089.11 743.711 1087.75 744.29 1087.15 745.096 1086.83 745.928 1086.86 746.754 1086.82 747.558 1087.14 748.118 1087.75 749.188 1089.11 749.188 1091.02 748.118 1092.38Z" stroke="#E8420F" stroke-width="0.388057" stroke-miterlimit="10" fill="none" transform="matrix(1.00053 0 0 1 -317.162 -994.757)"/><path d="M771.29 1038.33 785.787 1038.33C785.923 1038.35 786.048 1038.25 786.061 1038.11 786.064 1038.1 786.064 1038.09 786.064 1038.08L786.064 1036.19C786.064 1036.04 785.939 1035.92 785.787 1035.92L780.243 1035.92C780.152 1035.91 780.069 1035.86 780.022 1035.78L779.883 1035.22C779.814 1035.19 779.731 1035.19 779.661 1035.22L776.889 1035.22C776.751 1035.22 776.634 1035.32 776.626 1035.46 776.623 1035.51 776.637 1035.57 776.668 1035.61 776.668 1036.03 776.668 1036 776.474 1036L771.373 1036C771.227 1036.01 771.11 1036.13 771.096 1036.28L771.096 1038.16C771.11 1038.3 771.229 1038.41 771.373 1038.41" fill="#E8420F" transform="matrix(1.00053 0 0 1 -317.162 -994.757)"/><path d="M785.787 1039.13 771.263 1039.13C771.121 1039.15 771.013 1039.27 771.013 1039.41L771.013 1041.29C771.013 1041.43 771.124 1041.54 771.263 1041.54L785.787 1041.54C785.926 1041.54 786.036 1041.43 786.036 1041.29L786.036 1039.44C786.036 1039.29 785.928 1039.17 785.787 1039.16" fill="#E8420F" transform="matrix(1.00053 0 0 1 -317.162 -994.757)"/><path d="M771.263 1044.76 785.787 1044.76C785.926 1044.76 786.036 1044.65 786.039 1044.51 786.039 1044.5 786.036 1044.49 786.036 1044.48L786.036 1042.6C786.036 1042.46 785.926 1042.35 785.787 1042.35L771.263 1042.35C771.124 1042.35 771.013 1042.46 771.013 1042.6L771.013 1044.48C770.996 1044.62 771.096 1044.74 771.232 1044.76 771.243 1044.76 771.252 1044.76 771.263 1044.76" fill="#E8420F" transform="matrix(1.00053 0 0 1 -317.162 -994.757)"/><path d="M772.565 1051.97 784.429 1051.97C785.291 1051.97 785.995 1051.28 786.009 1050.41L786.009 1047.12C785.995 1046.26 785.307 1045.58 784.457 1045.56L772.482 1045.56C771.626 1045.56 770.93 1046.26 770.93 1047.12L770.93 1050.52C770.93 1051.38 771.626 1052.08 772.482 1052.08M773.397 1048.11 783.514 1048.11 783.514 1049.58 773.397 1049.58Z" fill="#E8420F" transform="matrix(1.00053 0 0 1 -317.162 -994.757)"/><path d="M800.727 1047.45 787.977 1048.86C787.866 1048.88 787.783 1048.97 787.783 1049.08L787.783 1051.86C787.783 1051.96 787.869 1052.05 787.974 1052.05 787.985 1052.05 787.993 1052.05 788.004 1052.05L800.783 1050.64C800.877 1050.69 800.993 1050.65 801.046 1050.56 801.052 1050.55 801.057 1050.54 801.06 1050.52L801.06 1047.75C801.06 1047.63 800.963 1047.53 800.841 1047.53 800.83 1047.53 800.821 1047.53 800.81 1047.53" fill="#E8420F" transform="matrix(1.00053 0 0 1 -317.162 -994.757)"/><path d="M788.06 1046.51C788.223 1046.55 788.395 1046.55 788.559 1046.51L800.672 1046.51C800.81 1046.51 800.921 1046.39 800.921 1046.26L800.921 1042.13C800.921 1041.99 800.81 1041.88 800.672 1041.88L797.734 1041.88C797.612 1041.86 797.501 1041.95 797.484 1042.07 797.484 1042.07 797.484 1042.07 797.484 1042.07L797.484 1042.87C797.484 1043.15 797.26 1043.37 796.985 1043.37L793.216 1043.37 800.45 1035.28C800.519 1035.25 800.547 1035.16 800.514 1035.09 800.5 1035.07 800.478 1035.04 800.45 1035.03L796.708 1035.03C796.647 1035.01 796.575 1035.01 796.514 1035.03L793.936 1037.8 792.439 1037.8C792.439 1037.8 792.439 1037.8 792.439 1037.8L794.906 1035.25C794.976 1035.22 795.003 1035.14 794.97 1035.07 794.956 1035.04 794.934 1035.02 794.906 1035L790.998 1035 790.832 1035C788.06 1038.02 788.06 1038.08 788.06 1038.19L788.06 1039.77C788.077 1039.92 788.174 1040.04 788.309 1040.1 788.445 1040.13 788.589 1040.13 788.725 1040.1L791.746 1040.1C789.668 1042.26 788.06 1043.96 788.06 1044.01L788.06 1045.81C788.068 1045.98 788.176 1046.14 788.337 1046.2" fill="#E8420F" transform="matrix(1.00053 0 0 1 -317.162 -994.757)"/><path d="M756.35 1051.99 769.128 1050.58C769.236 1050.58 769.322 1050.49 769.322 1050.39L769.322 1047.61C769.322 1047.49 769.225 1047.39 769.103 1047.39 769.092 1047.39 769.084 1047.39 769.073 1047.39L756.295 1048.81C756.2 1048.84 756.134 1048.93 756.128 1049.03L756.128 1051.8C756.128 1051.91 756.214 1051.99 756.32 1052 756.331 1052 756.339 1051.99 756.35 1051.99" fill="#E8420F" transform="matrix(1.00053 0 0 1 -317.162 -994.757)"/><path d="M756.406 1046.51C756.569 1046.56 756.741 1046.56 756.904 1046.51L769.017 1046.51C769.156 1046.51 769.267 1046.39 769.267 1046.26L769.267 1042.13C769.253 1041.98 769.134 1041.88 768.99 1041.88L766.052 1041.88C765.935 1041.88 765.835 1041.96 765.802 1042.07L765.802 1042.87C765.788 1043.15 765.555 1043.37 765.275 1043.37L761.533 1043.37 768.768 1035.28C768.837 1035.22 768.843 1035.11 768.782 1035.04 768.779 1035.04 768.773 1035.04 768.768 1035.03L765.026 1035.03C764.954 1035 764.876 1035 764.804 1035.03 764 1035.92 763.113 1036.86 762.226 1037.8L760.73 1037.8C760.73 1037.8 760.73 1037.8 760.73 1037.8L763.197 1035.25C763.266 1035.22 763.294 1035.14 763.26 1035.07 763.246 1035.04 763.224 1035.02 763.197 1035L759.261 1035 759.094 1035C756.322 1038.02 756.322 1038.08 756.322 1038.19L756.322 1039.77C756.322 1039.91 756.411 1040.05 756.544 1040.1 756.691 1040.13 756.841 1040.13 756.988 1040.1L760.009 1040.1C757.93 1042.26 756.322 1043.96 756.322 1044.01L756.322 1045.81C756.314 1045.99 756.43 1046.15 756.6 1046.2" fill="#E8420F" transform="matrix(1.00053 0 0 1 -317.162 -994.757)"/><path d="M797.262 1062.47C798.368 1062.68 799.51 1062.45 800.45 1061.83 800.88 1061.24 801.06 1060.51 800.949 1059.78L800.949 1053.71C800.949 1053.39 800.688 1053.13 800.367 1053.13L756.71 1053.13C756.389 1053.13 756.128 1053.39 756.128 1053.71 756.128 1053.72 756.128 1053.73 756.128 1053.74L756.128 1056.51C756.112 1056.83 756.361 1057.11 756.683 1057.12 756.691 1057.12 756.702 1057.12 756.71 1057.12L796.985 1057.12 796.985 1058.54 756.71 1058.54C756.389 1058.54 756.128 1058.8 756.128 1059.12L756.128 1067.43C756.128 1067.75 756.389 1068.02 756.71 1068.02L796.985 1068.02 796.985 1069.48 764.527 1069.48C764.466 1069.53 764.452 1069.62 764.499 1069.68 764.508 1069.69 764.516 1069.7 764.527 1069.71L766.218 1073.48 766.356 1073.48 796.847 1073.48C798.149 1073.61 799.452 1073.24 800.478 1072.42 800.982 1071.8 801.196 1070.99 801.06 1070.2L801.06 1064.66C801.06 1064.34 800.799 1064.08 800.478 1064.08L760.009 1064.08 760.009 1062.53Z" fill="#E8420F" transform="matrix(1.00053 0 0 1 -317.162 -994.757)"/><path d="M753.107 1055.07 747.258 1055.07C747.173 1055.08 747.098 1055.13 747.064 1055.21L740.634 1073.39C740.603 1073.51 740.675 1073.63 740.792 1073.66 740.814 1073.67 740.833 1073.67 740.856 1073.67L746.704 1073.67C746.798 1073.67 746.884 1073.61 746.926 1073.53L753.329 1055.38C753.359 1055.24 753.276 1055.11 753.143 1055.08 753.129 1055.07 753.118 1055.07 753.107 1055.07" fill="#E8420F" transform="matrix(1.00053 0 0 1 -317.162 -994.757)"/><path d="M741.05 1050.16C744.107 1050.98 747.256 1051.4 750.418 1051.41 751.222 1051.41 752.054 1051.41 752.913 1051.41 753.021 1051.41 753.107 1051.33 753.107 1051.22L753.107 1046.03C753.107 1045.91 753.01 1045.81 752.888 1045.81 752.877 1045.81 752.869 1045.81 752.858 1045.81 748.952 1045.92 745.052 1045.47 741.271 1044.48L741.271 1044.48C741.141 1044.44 741 1044.5 740.953 1044.63 740.944 1044.66 740.939 1044.68 740.939 1044.7L740.939 1044.7 740.939 1050.05C740.93 1050.15 740.989 1050.24 741.077 1050.28" fill="#E8420F" transform="matrix(1.00053 0 0 1 -317.162 -994.757)"/><path d="M741.05 1041.07C744.101 1041.91 747.253 1042.34 750.418 1042.35 751.222 1042.35 752.054 1042.35 752.913 1042.35 753.016 1042.34 753.096 1042.26 753.107 1042.15L753.107 1036.94C753.093 1036.82 752.982 1036.73 752.86 1036.75 752.86 1036.75 752.858 1036.75 752.858 1036.75 748.952 1036.84 745.055 1036.39 741.271 1035.42L741.271 1035.42C741.141 1035.37 741 1035.44 740.953 1035.57 740.944 1035.59 740.939 1035.62 740.939 1035.64L740.939 1035.64 740.939 1041.05C740.944 1041.13 740.997 1041.21 741.077 1041.24" fill="#E8420F" transform="matrix(1.00053 0 0 1 -317.162 -994.757)"/><path d="M721.785 1053.63 672.558 1053.63C670.323 1053.63 668.511 1055.44 668.511 1057.68 668.511 1057.68 668.511 1057.7 668.511 1057.7L668.511 1069.51C668.525 1071.75 670.346 1073.56 672.585 1073.56L721.758 1073.56C723.997 1073.56 725.818 1071.75 725.832 1069.51L725.832 1057.7C725.849 1055.47 724.047 1053.65 721.813 1053.63 721.805 1053.63 721.794 1053.63 721.785 1053.63M719.512 1067.16 674.831 1067.16 674.831 1059.95 719.512 1059.95Z" fill="#E8420F" transform="matrix(1.00053 0 0 1 -317.162 -994.757)"/><path d="M727.218 1044.79C727.218 1044.48 727.218 1044.37 726.913 1044.34 725.879 1044.26 724.857 1044.06 723.864 1043.76 720.034 1042.83 716.854 1040.17 715.272 1036.55 715.175 1036.34 714.956 1036.19 714.717 1036.19L708.259 1036.19C707.937 1036.19 707.668 1036.44 707.66 1036.76 707.657 1036.84 707.674 1036.92 707.704 1037 708.833 1039.79 710.875 1042.12 713.498 1043.6L713.664 1043.6C713.794 1043.66 713.88 1043.78 713.886 1043.93 713.886 1044.14 713.711 1044.32 713.498 1044.32L682.287 1044.32C681.951 1044.3 681.666 1044.56 681.649 1044.9 681.649 1044.91 681.649 1044.92 681.649 1044.93 681.649 1046.39 681.649 1048.47 681.649 1049.97 681.649 1050.31 681.921 1050.58 682.259 1050.58 682.267 1050.58 682.278 1050.58 682.287 1050.58L724.723 1050.58C726.073 1050.45 727.129 1049.36 727.218 1048L727.218 1048 727.218 1048 727.218 1048 727.218 1044.79" fill="#E8420F" transform="matrix(1.00053 0 0 1 -317.162 -994.757)"/><path d="M690.879 1035.72C690.963 1035.66 690.979 1035.53 690.913 1035.45 690.902 1035.44 690.891 1035.43 690.879 1035.42 690.727 1035.31 690.538 1035.26 690.353 1035.28L683.063 1035.28C682.691 1035.27 682.326 1035.36 682.01 1035.56 681.954 1035.54 681.899 1035.54 681.843 1035.56L667.014 1050.03C666.914 1050.1 666.892 1050.24 666.964 1050.34 666.978 1050.36 666.995 1050.37 667.014 1050.39 667.014 1050.39 667.263 1050.52 667.541 1050.52L674.581 1050.52 675.274 1050.52C675.56 1050.5 675.823 1050.37 676.022 1050.16Z" fill="#E8420F" transform="matrix(1.00053 0 0 1 -317.162 -994.757)"/><path d="M836.234 1038.94 828.556 1038.94 829.915 1035.47C829.962 1035.38 829.92 1035.26 829.823 1035.22 829.793 1035.2 829.757 1035.19 829.721 1035.2L823.817 1035.2C823.756 1035.17 823.683 1035.17 823.623 1035.2L822.292 1038.8 814.448 1038.8C814.11 1038.8 813.838 1039.07 813.838 1039.41L813.838 1044.98C813.838 1045.3 814.099 1045.56 814.42 1045.56 814.428 1045.56 814.439 1045.56 814.448 1045.56L819.991 1045.56 818.467 1050C818.459 1050.08 818.459 1050.16 818.467 1050.25 818.478 1050.33 818.478 1050.41 818.467 1050.5L818.467 1050.5C818.467 1050.8 818.162 1051.22 817.968 1051.72L817.968 1051.94 817.968 1051.94C817.985 1052.03 817.985 1052.12 817.968 1052.22L817.968 1052.44 817.968 1052.44 817.719 1053.05C817.719 1053.05 817.719 1053.05 817.719 1053.05L817.552 1053.41 817.552 1053.41 817.552 1053.68 817.552 1053.88 817.552 1054.07 817.552 1054.32 817.552 1054.46 817.552 1054.77 817.552 1054.9C817.563 1055.01 817.563 1055.11 817.552 1055.21L817.552 1055.35 817.414 1055.65 817.414 1055.65 817.414 1055.96C817.414 1055.96 817.414 1055.96 817.414 1056.1L817.414 1056.4 817.414 1056.4C817.414 1056.4 817.414 1056.62 817.414 1056.71L817.414 1056.71 817.275 1057.04 817.275 1057.04 817.275 1057.32 817.275 1057.32C817.281 1057.41 817.281 1057.5 817.275 1057.59L817.275 1057.59C817.275 1057.59 817.275 1057.79 817.136 1057.87L817.136 1057.87 817.136 1058.12 817.136 1058.12C817.125 1058.2 817.125 1058.29 817.136 1058.37L817.136 1058.37 817.136 1058.59 817.136 1058.59 817.136 1058.81 817.136 1058.81 817.136 1059.01 817.136 1059.01 817.136 1059.17 817.136 1059.17 817.136 1059.31 817.136 1059.31 817.136 1059.31 817.136 1059.48C818.744 1060.17 821.627 1061.53 824.925 1063.14 822.81 1065.14 820.313 1066.68 817.58 1067.68 817.308 1067.76 817.125 1068.01 817.136 1068.29L817.136 1073.5C817.125 1073.86 817.4 1074.15 817.752 1074.16 817.816 1074.17 817.879 1074.16 817.94 1074.14 822.943 1072.75 827.442 1069.96 830.912 1066.1 833.851 1067.54 836.733 1069.01 839.034 1070.18 839.361 1070.35 839.763 1070.22 839.929 1069.89 839.976 1069.8 840.001 1069.7 840.004 1069.59L840.004 1065.49C839.999 1065.23 839.849 1065 839.616 1064.88L834.682 1062.55C836.822 1059.31 838.405 1055.73 839.367 1051.97 839.367 1051.97 839.644 1050.47 839.727 1049.97 839.81 1049.47 839.727 1049.42 839.727 1049.14 839.757 1048.76 839.472 1048.42 839.092 1048.39 839.073 1048.39 839.053 1048.39 839.034 1048.39L834.045 1048.39C833.701 1048.38 833.407 1048.63 833.352 1048.97L833.185 1050.22C833.185 1050.66 832.964 1051.08 832.825 1051.52L832.825 1051.52C831.924 1054.49 830.558 1057.3 828.778 1059.84L824.648 1057.9C824.584 1057.82 824.584 1057.7 824.648 1057.62L829.305 1045.42 839.505 1045.42C839.827 1045.44 840.098 1045.19 840.115 1044.87 840.115 1044.86 840.115 1044.85 840.115 1044.84L840.115 1039.44C840.115 1039.1 839.841 1038.83 839.505 1038.83" fill="#E8420F" transform="matrix(1.00053 0 0 1 -317.162 -994.757)"/><path d="M874.07 1053.8 866.226 1053.8 866.226 1047.23C866.201 1047.17 866.201 1047.11 866.226 1047.06L873.987 1041.71C874.012 1041.65 874.012 1041.58 873.987 1041.52L873.987 1035.81C873.987 1035.47 873.712 1035.2 873.377 1035.2L839.865 1035.2C839.53 1035.2 839.256 1035.47 839.256 1035.81L839.256 1041.05C839.256 1041.37 839.516 1041.63 839.838 1041.63 839.846 1041.63 839.857 1041.63 839.865 1041.63L863.121 1041.63C863.235 1041.67 863.296 1041.8 863.251 1041.91 863.229 1041.97 863.182 1042.02 863.121 1042.04L859.656 1044.04C859.631 1044.1 859.631 1044.17 859.656 1044.23L859.656 1053.8 839.477 1053.8C839.339 1053.8 839.228 1053.91 839.228 1054.04L839.228 1060.31C839.228 1060.45 839.339 1060.56 839.477 1060.56L859.656 1060.56 859.656 1066.96C859.656 1067.08 859.557 1067.18 859.435 1067.18L840.42 1067.18C840.314 1067.16 840.212 1067.23 840.193 1067.34 840.181 1067.39 840.193 1067.44 840.226 1067.49L843.164 1073.45C843.197 1073.53 843.272 1073.58 843.358 1073.59L860.765 1073.59C863.709 1073.57 866.087 1071.18 866.087 1068.24L866.087 1060.53 873.931 1060.53C874.07 1060.53 874.181 1060.42 874.181 1060.28L874.181 1054.02C874.181 1053.88 874.07 1053.77 873.931 1053.77" fill="#E8420F" transform="matrix(1.00053 0 0 1 -317.162 -994.757)"/><path d="M907.276 1035.42 907.276 1041.43C907.276 1041.55 907.193 1041.64 907.082 1041.65L887.68 1044.43C887.558 1044.43 887.458 1044.33 887.458 1044.2L887.458 1038.19C887.458 1038.08 887.541 1037.98 887.652 1037.97L907.055 1035.2C907.177 1035.2 907.276 1035.3 907.276 1035.42" fill="#E8420F" transform="matrix(1.00053 0 0 1 -317.162 -994.757)"/><path d="M907.055 1045.7 887.652 1048.47C887.544 1048.47 887.458 1048.56 887.458 1048.67L887.458 1054.71C887.472 1054.82 887.566 1054.9 887.68 1054.9L894.692 1053.93 894.692 1073C894.692 1073.33 894.953 1073.59 895.274 1073.59L900.458 1073.59C900.779 1073.59 901.04 1073.33 901.04 1073L901.04 1053.07 907.082 1052.24C907.193 1052.23 907.276 1052.14 907.276 1052.02L907.276 1046.01C907.265 1045.89 907.171 1045.8 907.055 1045.78" fill="#E8420F" transform="matrix(1.00053 0 0 1 -317.162 -994.757)"/><path d="M935.355 1038C935.308 1037.92 935.336 1037.82 935.416 1037.77 935.438 1037.76 935.466 1037.75 935.494 1037.75L940.4 1037.75C940.555 1037.74 940.702 1037.82 940.76 1037.97 941.98 1040.03 943.978 1041.52 946.304 1042.1L946.442 1042.1C946.803 1042.1 947.191 1042.35 947.579 1042.43 947.67 1042.45 947.756 1042.39 947.77 1042.3 947.773 1042.28 947.773 1042.28 947.773 1042.26L947.773 1035.67C947.773 1035.39 947.548 1035.17 947.274 1035.17L910.963 1035.17C910.7 1035.18 910.492 1035.4 910.492 1035.67L910.492 1041.21C910.492 1041.47 910.702 1041.68 910.963 1041.68L938.404 1041.68 938.404 1041.54C937.071 1040.63 936.001 1039.39 935.3 1037.94" fill="#E8420F" transform="matrix(1.00053 0 0 1 -317.162 -994.757)"/><path d="M947.052 1045.31 911.323 1045.31C910.988 1045.31 910.714 1045.59 910.714 1045.92L910.714 1051.47C910.714 1051.8 910.988 1052.08 911.323 1052.08L935.521 1052.08 935.521 1066.91C935.508 1067.02 935.413 1067.1 935.3 1067.1L916.451 1067.1C916.343 1067.1 916.254 1067.18 916.249 1067.29 916.249 1067.33 916.26 1067.37 916.285 1067.41L919.195 1073.31C919.256 1073.35 919.328 1073.35 919.389 1073.31L936.63 1073.31C939.538 1073.31 941.897 1070.95 941.897 1068.04L941.897 1051.94 947.052 1051.94C947.39 1051.94 947.662 1051.66 947.662 1051.33L947.662 1045.78C947.679 1045.45 947.418 1045.16 947.08 1045.15 947.072 1045.15 947.061 1045.15 947.052 1045.15" fill="#E8420F" transform="matrix(1.00053 0 0 1 -317.162 -994.757)"/><path d="M83.5153 0.720677 94.6304 0.720677 94.6304 37.7246 83.5153 37.7246Z" fill="#231815" transform="matrix(1.00053 0 0 1 30 40.384)"/><path d="M417.965 1050.52C416.662 1047.36 415.498 1044.34 414.694 1042.82 412.172 1037.89 408.929 1035.22 403.607 1035.22 398.285 1035.22 395.291 1038 392.658 1042.82 391.882 1044.34 390.69 1047.36 389.415 1050.52 386.865 1056.57 384.924 1060.23 381.099 1061.25L381.099 1073.36C391.438 1071.73 395.984 1065.05 399.393 1055.51L401.029 1051.02C401.805 1048.94 402.387 1047.7 403.607 1047.7 404.826 1047.7 405.408 1048.94 406.184 1051.02 406.6 1052.08 407.265 1053.93 407.82 1055.51 411.257 1065.05 415.803 1071.73 426.142 1073.36L426.142 1061.25C422.316 1060.23 420.348 1056.57 417.826 1050.52" fill="#231815" transform="matrix(1.00053 0 0 1 -317.162 -994.757)"/><path d="M37.8632 11.0596 37.8632 0.720677 0 0.720677 0 11.0596 13.3602 11.0596 13.3602 37.7246 24.4753 37.7246 24.4753 11.0596 37.8632 11.0596Z" fill="#231815" transform="matrix(1.00053 0 0 1 30 40.384)"/><path d="M598.245 1035.86 598.245 1061C598.245 1061.75 597.968 1062.08 597.552 1062.08 597.136 1062.08 596.609 1061.36 595.889 1059.78 593.865 1055.4 591.676 1050.52 589.43 1046.2 586.437 1040.46 583.887 1035.34 576.624 1035.34 569.362 1035.34 565.897 1040.19 565.897 1048.28L565.897 1072.87 576.985 1072.87 576.985 1047.75C576.985 1047.03 577.262 1046.7 577.65 1046.7 578.038 1046.7 578.62 1047.42 579.341 1049 581.364 1053.38 583.554 1058.26 585.799 1062.58 588.765 1068.32 591.343 1073.42 598.605 1073.42 605.867 1073.42 609.332 1068.6 609.332 1060.5L609.332 1035.92Z" fill="#231815" transform="matrix(1.00053 0 0 1 -317.162 -994.757)"/><path d="M502.367 1057.87C502.367 1059.73 502.034 1061.25 500.621 1061.25 499.207 1061.25 497.849 1058.15 495.465 1051.74 493.719 1047.31 492.499 1044.34 491.751 1042.76 489.245 1036.59 482.21 1033.62 476.04 1036.13 473.027 1037.36 470.635 1039.75 469.41 1042.76 468.662 1044.34 467.442 1047.31 465.696 1051.74 463.229 1058.15 462.148 1061.25 460.54 1061.25 458.932 1061.25 458.794 1059.73 458.794 1057.87L458.794 1035.86 447.707 1035.86 447.707 1059.89C447.707 1068.54 452.474 1073.36 459.653 1073.36 467.969 1073.36 471.461 1067.63 474.981 1058.31 476.34 1054.71 477.171 1052.52 477.753 1051.02 478.529 1049.06 479.305 1047.7 480.525 1047.7 481.745 1047.7 482.548 1049.06 483.297 1051.02 483.934 1052.52 484.766 1054.71 486.069 1058.31 489.589 1067.63 492.971 1073.36 501.397 1073.36 508.576 1073.36 513.344 1068.54 513.344 1059.89L513.344 1035.86 502.256 1035.86Z" fill="#231815" transform="matrix(1.00053 0 0 1 -317.162 -994.757)"/><path d="M553.369 1050.52C552.066 1047.36 550.902 1044.34 550.098 1042.82 547.576 1037.89 544.333 1035.22 539.011 1035.22 533.689 1035.22 530.695 1038 528.062 1042.82 527.286 1044.34 526.094 1047.36 524.819 1050.52 522.269 1056.57 520.301 1060.23 516.503 1061.25L516.503 1073.36C526.842 1071.73 531.388 1065.05 534.797 1055.51L536.433 1051.02C537.209 1048.94 537.791 1047.7 539.011 1047.7 540.23 1047.7 540.812 1048.94 541.589 1051.02 542.004 1052.08 542.669 1053.93 543.224 1055.51 546.661 1065.05 551.207 1071.73 561.546 1073.36L561.546 1061.25C557.721 1060.23 555.753 1056.57 553.23 1050.52" fill="#231815" transform="matrix(1.00053 0 0 1 -317.162 -994.757)"/><path d="M403.191 1085.67 405.214 1091.85 405.353 1092.3 405.353 1091.88 406.794 1086.97C407.005 1086.02 407.953 1085.41 408.909 1085.62 409.583 1085.77 410.109 1086.3 410.259 1086.97L411.7 1091.85 411.7 1092.3 411.7 1091.85 413.696 1085.67 415.941 1085.67 413.169 1093.99C412.781 1095.15 412.255 1095.32 411.562 1095.32 410.783 1095.29 410.123 1094.73 409.982 1093.96L408.319 1088.64 408.319 1088.28 408.319 1088.64 406.683 1093.96C406.378 1095.01 405.796 1095.26 405.159 1095.26 404.358 1095.24 403.679 1094.66 403.523 1093.88L400.752 1085.56Z" fill="#231815" transform="matrix(1.00053 0 0 1 -317.162 -994.757)"/><path d="M422.954 1086.92 426.391 1095.23 424.09 1095.23 423.314 1093.27 419.018 1093.27 418.242 1095.23 415.775 1095.23 419.24 1086.92C419.45 1086.06 420.213 1085.45 421.097 1085.42 422.012 1085.42 422.538 1086 422.926 1086.89M422.51 1091.49 421.041 1087.81 419.572 1091.49Z" fill="#231815" transform="matrix(1.00053 0 0 1 -317.162 -994.757)"/><path d="M429.024 1093.74 425.837 1085.67 428.193 1085.67 430.965 1092.93 433.736 1085.67 436.009 1085.67 432.822 1093.74C432.406 1094.76 431.907 1095.35 430.909 1095.35 429.911 1095.35 429.357 1094.76 428.969 1093.74" fill="#231815" transform="matrix(1.00053 0 0 1 -317.162 -994.757)"/><path d="M445.96 1085.67 445.96 1087.53 439.474 1087.53 439.474 1089.33 444.713 1089.33 444.713 1091.16 439.474 1091.16 439.474 1093.21 445.96 1093.21 445.96 1095.07 439.058 1095.07C437.866 1095.07 437.284 1094.54 437.284 1093.43L437.284 1085.59Z" fill="#231815" transform="matrix(1.00053 0 0 1 -317.162 -994.757)"/><path d="M454.082 1092.49C454.082 1092.1 453.888 1091.77 453.167 1091.63L450.395 1091.05C448.289 1090.61 447.374 1089.83 447.374 1088.28 447.374 1086.72 448.566 1085.73 450.7 1085.73L455.606 1085.73 455.606 1087.58 450.506 1087.58C449.813 1087.58 449.564 1087.92 449.564 1088.3 449.564 1088.69 449.841 1089.03 450.866 1089.25L453.638 1089.83C454.996 1090.11 456.41 1090.8 456.41 1092.46 456.41 1094.13 455.163 1095.23 453.056 1095.23L447.512 1095.23 447.512 1093.38 453.056 1093.38C453.749 1093.38 454.109 1093.1 454.109 1092.57" fill="#231815" transform="matrix(1.00053 0 0 1 -317.162 -994.757)"/><path d="M461.76 1090.41C461.751 1087.67 463.966 1085.44 466.705 1085.44 466.84 1085.43 466.976 1085.44 467.109 1085.45 469.851 1085.16 472.307 1087.15 472.595 1089.89 472.886 1092.63 470.901 1095.08 468.16 1095.37 467.811 1095.41 467.459 1095.41 467.109 1095.37 464.376 1095.59 461.99 1093.55 461.774 1090.81 461.765 1090.68 461.76 1090.55 461.76 1090.41M470.075 1090.41C470.059 1088.73 468.684 1087.38 466.998 1087.39 465.316 1087.41 463.963 1088.78 463.977 1090.47 463.994 1092.14 465.352 1093.49 467.026 1093.49 468.548 1093.65 469.914 1092.55 470.078 1091.03 470.1 1090.82 470.1 1090.62 470.075 1090.41" fill="#231815" transform="matrix(1.00053 0 0 1 -317.162 -994.757)"/><path d="M482.964 1085.67 482.964 1087.58 476.478 1087.58 476.478 1089.5 481.689 1089.5 481.689 1091.38 476.478 1091.38 476.478 1095.15 474.288 1095.15 474.288 1087.33C474.288 1086.23 474.87 1085.67 476.09 1085.67Z" fill="#231815" transform="matrix(1.00053 0 0 1 -317.162 -994.757)"/><path d="M489.977 1085.67 492 1091.85 492.139 1092.3 492.139 1091.88 493.608 1086.97C493.733 1086.13 494.473 1085.51 495.327 1085.53 496.02 1085.53 496.685 1085.84 497.045 1086.97L498.486 1091.85 498.486 1092.3 498.625 1091.85 500.621 1085.67 502.866 1085.67 500.094 1093.99C499.706 1095.15 499.179 1095.32 498.486 1095.32 497.708 1095.29 497.048 1094.73 496.907 1093.96L495.243 1088.64 495.243 1088.28 495.243 1088.64 493.608 1093.96C493.303 1095.01 492.721 1095.26 492.084 1095.26 491.282 1095.24 490.603 1094.66 490.448 1093.88L487.676 1085.56Z" fill="#231815" transform="matrix(1.00053 0 0 1 -317.162 -994.757)"/><path d="M503.642 1090.41C503.634 1087.67 505.851 1085.44 508.59 1085.44 508.715 1085.44 508.839 1085.44 508.964 1085.45 511.705 1085.16 514.161 1087.15 514.449 1089.89 514.74 1092.63 512.756 1095.08 510.015 1095.37 509.665 1095.41 509.313 1095.41 508.964 1095.37 506.231 1095.57 503.855 1093.52 503.656 1090.79 503.645 1090.66 503.642 1090.54 503.642 1090.41M511.958 1090.41C511.941 1088.73 510.566 1087.38 508.881 1087.39 507.198 1087.41 505.846 1088.78 505.86 1090.47 505.876 1092.14 507.234 1093.49 508.909 1093.49 510.43 1093.65 511.797 1092.55 511.96 1091.03 511.983 1090.82 511.983 1090.62 511.958 1090.41" fill="#231815" transform="matrix(1.00053 0 0 1 -317.162 -994.757)"/><path d="M522.463 1094.24 518.056 1088.3 518.056 1095.15 515.949 1095.15 515.949 1087.03C515.871 1086.25 516.44 1085.56 517.216 1085.48 517.282 1085.48 517.352 1085.47 517.418 1085.48 518.361 1085.48 518.832 1085.89 519.497 1086.75L523.987 1092.66 523.987 1085.67 526.094 1085.67 526.094 1093.57C526.094 1094.68 525.567 1095.37 524.431 1095.37 523.616 1095.38 522.859 1094.95 522.463 1094.24" fill="#231815" transform="matrix(1.00053 0 0 1 -317.162 -994.757)"/><path d="M530.169 1085.67 532.94 1085.67C535.712 1085.67 538.29 1086.86 538.29 1090.36 538.29 1093.85 535.768 1095.18 532.94 1095.15L528.45 1095.15 528.45 1087.33C528.45 1086.23 529.032 1085.67 530.224 1085.67M535.989 1090.33C535.989 1088.19 534.493 1087.56 532.94 1087.56L530.64 1087.56 530.64 1093.35 532.94 1093.35C534.462 1093.51 535.826 1092.4 535.984 1090.88 536.003 1090.71 536.003 1090.53 535.989 1090.36" fill="#231815" transform="matrix(1.00053 0 0 1 -317.162 -994.757)"/><path d="M548.823 1085.67 548.823 1087.53 542.337 1087.53 542.337 1089.33 547.576 1089.33 547.576 1091.16 542.337 1091.16 542.337 1093.21 548.823 1093.21 548.823 1095.07 541.921 1095.07C540.729 1095.07 540.147 1094.54 540.147 1093.43L540.147 1085.59Z" fill="#231815" transform="matrix(1.00053 0 0 1 -317.162 -994.757)"/><path d="M556.917 1095.15 553.008 1091.63 552.759 1091.38 552.759 1095.15 550.569 1095.15 550.569 1087.36C550.569 1086.2 551.179 1085.67 552.343 1085.67L555.753 1085.67C557.859 1085.67 559.661 1086.59 559.661 1088.67 559.661 1090.74 557.998 1091.58 556.085 1091.63L560.077 1095.12 556.917 1095.12ZM557.305 1088.72C557.305 1087.86 556.529 1087.53 555.42 1087.53L552.648 1087.53 552.648 1090.02 555.42 1090.02C556.501 1090.02 557.277 1089.64 557.277 1088.72" fill="#231815" transform="matrix(1.00053 0 0 1 -317.162 -994.757)"/><path d="M291.209 0.277183 292.484 0.277183 292.484 60.1765 291.209 60.1765Z" fill="#231815" transform="matrix(1.00053 0 0 1 30 40.384)"/></g></svg>