<svg width="332" height="70" xmlns="http://www.w3.org/2000/svg" xmlns:xlink="http://www.w3.org/1999/xlink" xml:space="preserve" overflow="hidden"><defs><clipPath id="clip0"><rect x="300" y="139" width="332" height="70"/></clipPath></defs><g clip-path="url(#clip0)" transform="translate(-300 -139)"><path d="M480.111 421.29C478.96 420.641 477.66 420.302 476.338 420.309 475.728 420.274 475.12 420.206 474.517 420.106 474.153 420.057 473.803 419.93 473.492 419.735 473.239 419.555 473.093 419.259 473.103 418.948 473.116 418.476 473.424 418.063 473.872 417.914 474.457 417.688 475.084 417.586 475.71 417.614 476.391 417.567 477.071 417.715 477.672 418.038 478.08 418.313 478.356 418.745 478.432 419.231L480.747 419.231C480.663 418.271 480.167 417.394 479.386 416.827 478.292 416.125 477 415.79 475.701 415.873 474.782 415.855 473.867 415.998 472.997 416.297 472.309 416.514 471.696 416.922 471.23 417.473 470.825 417.971 470.615 418.598 470.638 419.24 470.602 420.1 471.026 420.915 471.751 421.379 472.866 422.003 474.123 422.331 475.401 422.333 476.05 422.36 476.696 422.431 477.336 422.545 477.726 422.599 478.095 422.754 478.405 422.996 478.646 423.226 478.775 423.548 478.759 423.88 478.743 424.427 478.391 424.908 477.875 425.09 477.184 425.377 476.44 425.509 475.692 425.479 473.784 425.479 472.723 424.772 472.52 423.385L470.178 423.385C470.249 424.479 470.786 425.49 471.654 426.16 472.849 426.941 474.267 427.313 475.692 427.22 476.708 427.241 477.719 427.083 478.679 426.752 479.415 426.504 480.068 426.061 480.571 425.47 481.003 424.926 481.231 424.247 481.216 423.553 481.258 422.667 480.831 421.825 480.093 421.334" fill="#E8420F" transform="matrix(1.00722 0 0 1 -2.95288 -218.388)"/><path d="M480.111 421.29C478.96 420.641 477.66 420.302 476.338 420.309 475.728 420.274 475.12 420.206 474.517 420.106 474.153 420.057 473.803 419.93 473.492 419.735 473.239 419.555 473.093 419.259 473.103 418.948 473.116 418.476 473.424 418.063 473.872 417.914 474.457 417.688 475.084 417.586 475.71 417.614 476.391 417.567 477.071 417.715 477.672 418.038 478.08 418.313 478.356 418.745 478.432 419.231L480.747 419.231C480.663 418.271 480.167 417.394 479.386 416.827 478.292 416.125 477 415.79 475.701 415.873 474.782 415.855 473.867 415.998 472.997 416.297 472.309 416.514 471.696 416.922 471.23 417.473 470.825 417.971 470.615 418.598 470.638 419.24 470.602 420.1 471.026 420.915 471.751 421.379 472.866 422.003 474.123 422.331 475.401 422.333 476.05 422.36 476.696 422.431 477.336 422.545 477.726 422.599 478.095 422.754 478.405 422.996 478.646 423.226 478.775 423.548 478.759 423.88 478.743 424.427 478.391 424.908 477.875 425.09 477.184 425.377 476.44 425.509 475.692 425.479 473.784 425.479 472.723 424.772 472.52 423.385L470.178 423.385C470.249 424.479 470.786 425.49 471.654 426.16 472.849 426.941 474.267 427.313 475.692 427.22 476.708 427.241 477.719 427.083 478.679 426.752 479.415 426.504 480.068 426.061 480.571 425.47 481.003 424.926 481.231 424.247 481.216 423.553 481.278 422.656 480.857 421.793 480.111 421.29Z" stroke="#E8420F" stroke-width="0.441863" stroke-miterlimit="10" fill="none" transform="matrix(1.00722 0 0 1 -2.95288 -218.388)"/><path d="M184.557 58.7148 182.189 58.7148 182.189 69.5493 184.557 69.5493 184.557 64.9274 189.913 64.9274 189.913 69.5493 192.281 69.5493 192.281 58.7148 189.913 58.7148 189.913 63.0274 184.557 63.0274 184.557 58.7148Z" fill="#E8420F" transform="matrix(1.00722 0 0 1 300.36 139)"/><path d="M184.557 58.7148 182.189 58.7148 182.189 69.5493 184.557 69.5493 184.557 64.9274 189.913 64.9274 189.913 69.5493 192.281 69.5493 192.281 58.7148 189.913 58.7148 189.913 63.0274 184.557 63.0274 184.557 58.7148Z" stroke="#E8420F" stroke-width="0.441863" stroke-miterlimit="10" fill="none" transform="matrix(1.00722 0 0 1 300.36 139)"/><path d="M500.905 425.232C500.116 425.262 499.345 424.99 498.749 424.472 498.177 423.986 497.853 423.269 497.865 422.519L497.865 416.112 495.488 416.112 495.488 422.421C495.47 423.295 495.7 424.156 496.151 424.905 496.605 425.624 497.25 426.203 498.015 426.575 499.797 427.376 501.837 427.376 503.618 426.575 504.383 426.203 505.029 425.624 505.483 424.905 505.934 424.156 506.163 423.295 506.146 422.421L506.146 416.112 503.874 416.112 503.874 422.519C503.887 423.269 503.563 423.986 502.991 424.472 502.395 424.99 501.624 425.262 500.834 425.232" fill="#E8420F" transform="matrix(1.00722 0 0 1 -2.95288 -218.388)"/><path d="M500.905 425.232C500.116 425.262 499.345 424.99 498.749 424.472 498.177 423.986 497.853 423.269 497.865 422.519L497.865 416.112 495.488 416.112 495.488 422.421C495.47 423.295 495.7 424.156 496.151 424.905 496.605 425.624 497.25 426.203 498.015 426.575 499.797 427.376 501.837 427.376 503.618 426.575 504.383 426.203 505.029 425.624 505.483 424.905 505.934 424.156 506.163 423.295 506.146 422.421L506.146 416.112 503.874 416.112 503.874 422.519C503.887 423.269 503.563 423.986 502.991 424.472 502.413 424.974 501.671 425.244 500.905 425.232Z" stroke="#E8420F" stroke-width="0.441863" stroke-miterlimit="10" fill="none" transform="matrix(1.00722 0 0 1 -2.95288 -218.388)"/><path d="M211.644 69.5493 214.021 69.5493 214.021 60.6148 218.528 60.6148 218.528 58.7148 207.137 58.7148 207.137 60.6148 211.644 60.6148 211.644 69.5493Z" fill="#E8420F" transform="matrix(1.00722 0 0 1 300.36 139)"/><path d="M211.644 69.5493 214.021 69.5493 214.021 60.6148 218.528 60.6148 218.528 58.7148 207.137 58.7148 207.137 60.6148 211.644 60.6148 211.644 69.5493Z" stroke="#E8420F" stroke-width="0.441863" stroke-miterlimit="10" fill="none" transform="matrix(1.00722 0 0 1 300.36 139)"/><path d="M225.138 69.5493 227.507 69.5493 227.507 60.6148 232.014 60.6148 232.014 58.7148 220.622 58.7148 220.622 60.6148 225.138 60.6148 225.138 69.5493Z" fill="#E8420F" transform="matrix(1.00722 0 0 1 300.36 139)"/><path d="M225.138 69.5493 227.507 69.5493 227.507 60.6148 232.014 60.6148 232.014 58.7148 220.622 58.7148 220.622 60.6148 225.138 60.6148 225.138 69.5493Z" stroke="#E8420F" stroke-width="0.441863" stroke-miterlimit="10" fill="none" transform="matrix(1.00722 0 0 1 300.36 139)"/><path d="M236.485 58.7148 234.117 58.7148 234.117 69.5493 243.511 69.5493 243.511 67.6493 236.485 67.6493 236.485 58.7148Z" fill="#E8420F" transform="matrix(1.00722 0 0 1 300.36 139)"/><path d="M236.485 58.7148 234.117 58.7148 234.117 69.5493 243.511 69.5493 243.511 67.6493 236.485 67.6493 236.485 58.7148Z" stroke="#E8420F" stroke-width="0.441863" stroke-miterlimit="10" fill="none" transform="matrix(1.00722 0 0 1 300.36 139)"/><path d="M255.105 60.6148 255.105 58.7148 245.614 58.7148 245.614 69.5493 255.105 69.5493 255.105 67.6493 247.983 67.6493 247.983 64.9274 255.105 64.9274 255.105 63.0274 247.983 63.0274 247.983 60.6148 255.105 60.6148Z" fill="#E8420F" transform="matrix(1.00722 0 0 1 300.36 139)"/><path d="M255.105 60.6148 255.105 58.7148 245.614 58.7148 245.614 69.5493 255.105 69.5493 255.105 67.6493 247.983 67.6493 247.983 64.9274 255.105 64.9274 255.105 63.0274 247.983 63.0274 247.983 60.6148 255.105 60.6148Z" stroke="#E8420F" stroke-width="0.441863" stroke-miterlimit="10" fill="none" transform="matrix(1.00722 0 0 1 300.36 139)"/><path d="M142.969 60.6148 147.476 60.6148 147.476 69.5493 149.854 69.5493 149.854 60.6148 154.361 60.6148 154.361 58.7148 142.969 58.7148 142.969 60.6148Z" fill="#E8420F" transform="matrix(1.00722 0 0 1 300.36 139)"/><path d="M142.969 60.6148 147.476 60.6148 147.476 69.5493 149.854 69.5493 149.854 60.6148 154.361 60.6148 154.361 58.7148 142.969 58.7148 142.969 60.6148Z" stroke="#E8420F" stroke-width="0.441863" stroke-miterlimit="10" fill="none" transform="matrix(1.00722 0 0 1 300.36 139)"/><path d="M421.617 422.421C422.315 422.251 422.938 421.853 423.385 421.29 423.812 420.733 424.037 420.048 424.021 419.346 424.047 418.149 423.374 417.045 422.298 416.518 421.714 416.236 421.073 416.094 420.424 416.103L414.238 416.103 414.238 426.928 416.606 426.928 416.606 422.598 418.842 422.598 421.67 426.937 424.48 426.937 421.343 422.519ZM421.158 420.318C420.864 420.573 420.485 420.705 420.097 420.689L416.562 420.689 416.562 418.003 420.097 418.003C420.484 417.991 420.862 418.123 421.158 418.374 421.437 418.622 421.592 418.981 421.582 419.355 421.593 419.726 421.438 420.083 421.158 420.327" fill="#E8420F" transform="matrix(1.00722 0 0 1 -2.95288 -218.388)"/><path d="M421.617 422.421C422.315 422.251 422.938 421.853 423.385 421.29 423.812 420.733 424.037 420.048 424.021 419.346 424.047 418.149 423.374 417.045 422.298 416.518 421.714 416.236 421.073 416.094 420.424 416.103L414.238 416.103 414.238 426.928 416.606 426.928 416.606 422.598 418.842 422.598 421.67 426.937 424.48 426.937 421.343 422.519ZM421.158 420.318C420.864 420.573 420.485 420.705 420.097 420.689L416.562 420.689 416.562 418.003 420.097 418.003C420.484 417.991 420.862 418.123 421.158 418.374 421.437 418.622 421.592 418.981 421.582 419.355 421.593 419.726 421.438 420.083 421.158 420.327Z" stroke="#E8420F" stroke-width="0.441863" stroke-miterlimit="10" fill="none" transform="matrix(1.00722 0 0 1 -2.95288 -218.388)"/><path d="M125.383 58.7148 127.743 58.7148 127.743 69.5405 125.383 69.5405Z" fill="#E8420F" transform="matrix(1.00722 0 0 1 300.36 139)"/><path d="M125.383 58.7148 127.743 58.7148 127.743 69.5405 125.383 69.5405Z" stroke="#E8420F" stroke-width="0.441863" stroke-miterlimit="10" fill="none" transform="matrix(1.00722 0 0 1 300.36 139)"/><path d="M440.891 421.29C439.74 420.641 438.44 420.302 437.118 420.309 436.508 420.273 435.9 420.205 435.297 420.106 434.933 420.057 434.583 419.93 434.272 419.735 434.023 419.551 433.878 419.258 433.883 418.948 433.897 418.476 434.204 418.063 434.652 417.914 435.237 417.688 435.864 417.586 436.49 417.614 437.171 417.567 437.851 417.715 438.452 418.038 438.86 418.313 439.136 418.745 439.212 419.231L441.536 419.231C441.457 418.27 440.959 417.39 440.175 416.827 439.081 416.125 437.789 415.79 436.49 415.873 435.571 415.855 434.656 415.998 433.786 416.297 433.098 416.514 432.485 416.922 432.019 417.473 431.614 417.971 431.404 418.598 431.427 419.24 431.391 420.1 431.815 420.915 432.54 421.379 433.655 422.003 434.912 422.331 436.19 422.333 436.839 422.36 437.485 422.431 438.125 422.545 438.515 422.599 438.884 422.754 439.195 422.996 439.435 423.226 439.563 423.548 439.548 423.88 439.532 424.427 439.18 424.908 438.664 425.09 437.973 425.377 437.228 425.509 436.482 425.479 434.573 425.479 433.512 424.772 433.309 423.385L430.967 423.385C431.038 424.479 431.575 425.49 432.443 426.16 433.639 426.941 435.056 427.313 436.482 427.22 437.497 427.242 438.509 427.083 439.469 426.752 440.205 426.506 440.859 426.063 441.36 425.47 441.792 424.926 442.02 424.247 442.005 423.553 442.047 422.667 441.621 421.825 440.882 421.334" fill="#E8420F" transform="matrix(1.00722 0 0 1 -2.95288 -218.388)"/><path d="M440.891 421.29C439.74 420.641 438.44 420.302 437.118 420.309 436.508 420.273 435.9 420.205 435.297 420.106 434.933 420.057 434.583 419.93 434.272 419.735 434.023 419.551 433.878 419.258 433.883 418.948 433.897 418.476 434.204 418.063 434.652 417.914 435.237 417.688 435.864 417.586 436.49 417.614 437.171 417.567 437.851 417.715 438.452 418.038 438.86 418.313 439.136 418.745 439.212 419.231L441.536 419.231C441.457 418.27 440.959 417.39 440.175 416.827 439.081 416.125 437.789 415.79 436.49 415.873 435.571 415.855 434.656 415.998 433.786 416.297 433.098 416.514 432.485 416.922 432.019 417.473 431.614 417.971 431.404 418.598 431.427 419.24 431.391 420.1 431.815 420.915 432.54 421.379 433.655 422.003 434.912 422.331 436.19 422.333 436.839 422.36 437.485 422.431 438.125 422.545 438.515 422.599 438.884 422.754 439.195 422.996 439.435 423.226 439.563 423.548 439.548 423.88 439.532 424.427 439.18 424.908 438.664 425.09 437.973 425.377 437.228 425.509 436.482 425.479 434.573 425.479 433.512 424.772 433.309 423.385L430.967 423.385C431.038 424.479 431.575 425.49 432.443 426.16 433.639 426.941 435.056 427.313 436.482 427.22 437.497 427.242 438.509 427.083 439.469 426.752 440.205 426.506 440.859 426.063 441.36 425.47 441.792 424.926 442.02 424.247 442.005 423.553 442.065 422.654 441.641 421.791 440.891 421.29Z" stroke="#E8420F" stroke-width="0.441863" stroke-miterlimit="10" fill="none" transform="matrix(1.00722 0 0 1 -2.95288 -218.388)"/><path d="M72.6865 60.6148 77.2024 60.6148 77.2024 69.5493 79.5708 69.5493 79.5708 60.6148 84.0778 60.6148 84.0778 58.7148 72.6865 58.7148 72.6865 60.6148Z" fill="#E8420F" transform="matrix(1.00722 0 0 1 300.36 139)"/><path d="M72.6865 60.6148 77.2024 60.6148 77.2024 69.5493 79.5708 69.5493 79.5708 60.6148 84.0778 60.6148 84.0778 58.7148 72.6865 58.7148 72.6865 60.6148Z" stroke="#E8420F" stroke-width="0.441863" stroke-miterlimit="10" fill="none" transform="matrix(1.00722 0 0 1 300.36 139)"/><path d="M409.793 422.519C409.8 423.268 409.477 423.982 408.909 424.472 407.646 425.484 405.851 425.484 404.588 424.472 404.02 423.982 403.697 423.268 403.704 422.519L403.704 416.112 401.336 416.112 401.336 422.421C401.318 423.295 401.548 424.156 401.998 424.905 402.446 425.629 403.093 426.21 403.863 426.575 405.642 427.376 407.678 427.376 409.457 426.575 410.227 426.21 410.875 425.629 411.322 424.905 411.772 424.156 412.002 423.295 411.985 422.421L411.985 416.112 409.722 416.112Z" fill="#E8420F" transform="matrix(1.00722 0 0 1 -2.95288 -218.388)"/><path d="M409.793 422.519C409.8 423.268 409.477 423.982 408.909 424.472 407.646 425.484 405.851 425.484 404.588 424.472 404.02 423.982 403.697 423.268 403.704 422.519L403.704 416.112 401.336 416.112 401.336 422.421C401.318 423.295 401.548 424.156 401.998 424.905 402.446 425.629 403.093 426.21 403.863 426.575 405.642 427.376 407.678 427.376 409.457 426.575 410.227 426.21 410.875 425.629 411.322 424.905 411.772 424.156 412.002 423.295 411.985 422.421L411.985 416.112 409.722 416.112Z" stroke="#E8420F" stroke-width="0.441863" stroke-miterlimit="10" fill="none" transform="matrix(1.00722 0 0 1 -2.95288 -218.388)"/><path d="M396.396 416.606C394.481 415.629 392.213 415.629 390.298 416.606 388.489 417.572 387.373 419.47 387.408 421.52 387.394 422.538 387.66 423.541 388.177 424.419 388.688 425.273 389.42 425.972 390.298 426.442 392.213 427.42 394.481 427.42 396.396 426.442 397.275 425.975 398.008 425.275 398.517 424.419 399.542 422.626 399.542 420.423 398.517 418.63 398.008 417.774 397.275 417.074 396.396 416.606M395.91 424.189 395.91 424.189C394.475 425.558 392.218 425.558 390.784 424.189 389.525 422.61 389.525 420.368 390.784 418.789 392.218 417.42 394.475 417.42 395.91 418.789 397.182 420.364 397.182 422.614 395.91 424.189" fill="#E8420F" transform="matrix(1.00722 0 0 1 -2.95288 -218.388)"/><path d="M396.396 416.606C394.481 415.629 392.213 415.629 390.298 416.606 388.489 417.572 387.373 419.47 387.408 421.52 387.394 422.538 387.66 423.541 388.177 424.419 388.688 425.273 389.42 425.972 390.298 426.442 392.213 427.42 394.481 427.42 396.396 426.442 397.275 425.975 398.008 425.275 398.517 424.419 399.542 422.626 399.542 420.423 398.517 418.63 398.008 417.774 397.275 417.074 396.396 416.606ZM395.91 424.189 395.91 424.189C394.475 425.558 392.218 425.558 390.784 424.189 389.525 422.61 389.525 420.368 390.784 418.789 392.218 417.42 394.475 417.42 395.91 418.789 397.182 420.364 397.182 422.614 395.91 424.189Z" stroke="#E8420F" stroke-width="0.441863" stroke-miterlimit="10" fill="none" transform="matrix(1.00722 0 0 1 -2.95288 -218.388)"/><path d="M422.96 361.126 439.91 361.126C440.075 361.122 440.206 360.99 440.211 360.826L440.211 358.625C440.211 358.459 440.076 358.325 439.91 358.325L433.459 358.325C433.357 358.327 433.26 358.277 433.203 358.192L433.017 357.529C432.966 357.441 432.871 357.387 432.77 357.388L429.421 357.388C429.25 357.393 429.116 357.536 429.12 357.706 429.122 357.759 429.137 357.811 429.164 357.856 429.288 358.334 429.164 358.325 428.917 358.325L422.96 358.325C422.794 358.325 422.66 358.459 422.66 358.625L422.66 360.826C422.66 360.992 422.794 361.126 422.96 361.126" fill="#E8420F" transform="matrix(1.00722 0 0 1 -2.95288 -218.388)"/><path d="M439.893 362.081 422.943 362.081C422.777 362.081 422.642 362.215 422.642 362.381L422.642 364.581C422.642 364.748 422.777 364.882 422.943 364.882L439.893 364.882C440.059 364.882 440.193 364.748 440.193 364.581L440.193 362.381C440.193 362.215 440.059 362.081 439.893 362.081" fill="#E8420F" transform="matrix(1.00722 0 0 1 -2.95288 -218.388)"/><path d="M422.952 368.629 439.902 368.629C440.068 368.629 440.202 368.495 440.202 368.328L440.202 366.128C440.202 365.962 440.068 365.828 439.902 365.828L422.952 365.828C422.785 365.828 422.651 365.962 422.651 366.128L422.651 368.328C422.656 368.493 422.787 368.625 422.952 368.629" fill="#E8420F" transform="matrix(1.00722 0 0 1 -2.95288 -218.388)"/><path d="M424.472 377.042 438.417 377.042C439.383 377.019 440.161 376.241 440.184 375.275L440.184 371.413C440.184 370.436 439.393 369.645 438.417 369.645L424.454 369.645C423.472 369.65 422.671 370.432 422.642 371.413L422.642 375.275C422.666 376.262 423.476 377.047 424.463 377.042M425.523 372.429 437.339 372.429 437.339 374.152 425.532 374.152Z" fill="#E8420F" transform="matrix(1.00722 0 0 1 -2.95288 -218.388)"/><path d="M457.355 371.793 442.438 373.428C442.315 373.445 442.225 373.551 442.226 373.675L442.226 376.848C442.224 376.979 442.33 377.087 442.462 377.089 442.474 377.089 442.487 377.088 442.5 377.086L457.408 375.451C457.531 375.434 457.621 375.328 457.62 375.204L457.62 372.049C457.621 371.917 457.515 371.809 457.383 371.809 457.374 371.809 457.365 371.809 457.355 371.81" fill="#E8420F" transform="matrix(1.00722 0 0 1 -2.95288 -218.388)"/><path d="M442.544 370.679C442.727 370.773 442.93 370.819 443.136 370.812L452.981 370.812 452.981 370.812 457.276 370.812C457.436 370.817 457.571 370.69 457.576 370.529 457.576 370.526 457.576 370.523 457.576 370.52L457.62 365.695C457.62 365.534 457.489 365.403 457.329 365.403L453.891 365.403C453.744 365.406 453.621 365.515 453.599 365.66L453.484 366.588C453.48 366.907 453.221 367.166 452.901 367.171L448.482 367.171 456.931 357.715C456.999 357.645 456.998 357.534 456.928 357.465 456.894 357.431 456.847 357.413 456.798 357.414L452.468 357.414C452.379 357.414 452.293 357.45 452.23 357.512 451.275 358.554 450.241 359.659 449.225 360.737L447.457 360.737 447.457 360.675 450.338 357.724C450.412 357.659 450.42 357.548 450.356 357.475 450.318 357.431 450.262 357.409 450.206 357.414L445.637 357.414C445.564 357.414 445.494 357.443 445.442 357.494 442.252 361.029 442.252 361.1 442.252 361.214L442.252 363.044C442.259 363.223 442.37 363.381 442.535 363.45 442.694 363.531 442.87 363.57 443.048 363.565L446.582 363.565C444.161 366.11 442.279 368.072 442.279 368.143L442.279 370.237C442.285 370.44 442.41 370.62 442.597 370.697" fill="#E8420F" transform="matrix(1.00722 0 0 1 -2.95288 -218.388)"/><path d="M405.533 377.086 420.442 375.451C420.565 375.434 420.655 375.328 420.654 375.204L420.654 372.049C420.655 371.917 420.549 371.809 420.417 371.809 420.407 371.809 420.399 371.809 420.389 371.81L405.472 373.445C405.349 373.463 405.259 373.569 405.259 373.693L405.259 376.865C405.258 376.997 405.364 377.105 405.495 377.107 405.508 377.107 405.521 377.106 405.533 377.104" fill="#E8420F" transform="matrix(1.00722 0 0 1 -2.95288 -218.388)"/><path d="M405.578 370.679C405.76 370.773 405.965 370.819 406.17 370.812L416.014 370.812 416.014 370.812 420.309 370.812C420.47 370.817 420.604 370.69 420.61 370.529 420.61 370.526 420.61 370.523 420.61 370.52L420.654 365.695C420.654 365.534 420.523 365.403 420.362 365.403L416.925 365.403C416.778 365.402 416.656 365.514 416.642 365.66L416.518 366.588C416.514 366.907 416.255 367.166 415.935 367.171L411.516 367.171 419.965 357.715C420.033 357.645 420.032 357.534 419.962 357.465 419.928 357.431 419.881 357.413 419.832 357.414L415.466 357.414C415.377 357.414 415.292 357.45 415.228 357.512 414.273 358.554 413.239 359.659 412.223 360.737L410.456 360.737 410.456 360.675 413.337 357.724C413.41 357.659 413.417 357.548 413.353 357.475 413.317 357.435 413.266 357.413 413.213 357.414L408.635 357.414C408.563 357.414 408.492 357.443 408.441 357.494 405.251 361.029 405.251 361.1 405.251 361.214L405.251 363.044C405.258 363.223 405.368 363.381 405.533 363.45 405.692 363.531 405.868 363.57 406.046 363.565L409.581 363.565C407.159 366.11 405.277 368.072 405.277 368.143L405.277 370.237C405.283 370.44 405.408 370.62 405.595 370.697" fill="#E8420F" transform="matrix(1.00722 0 0 1 -2.95288 -218.388)"/><path d="M453.29 389.308C455.057 389.388 456.312 389.308 457.01 388.548 457.518 387.863 457.731 387.004 457.603 386.162L457.603 379.092C457.607 378.711 457.303 378.399 456.922 378.394 456.919 378.394 456.916 378.394 456.913 378.394L405.966 378.394C405.576 378.394 405.259 378.711 405.259 379.101L405.259 382.318C405.259 382.708 405.576 383.025 405.966 383.025L452.963 383.025 452.963 384.677 405.949 384.677C405.568 384.677 405.259 384.986 405.259 385.367L405.259 395.026C405.259 395.407 405.568 395.715 405.949 395.715L452.972 395.715 452.972 397.421 415.086 397.421C414.994 397.422 414.919 397.498 414.92 397.59 414.921 397.614 414.927 397.638 414.936 397.659L416.916 402.078C416.938 402.142 416.999 402.184 417.066 402.184L452.68 402.184C454.722 402.184 456.144 401.769 456.904 400.947 457.474 400.215 457.725 399.285 457.603 398.366L457.603 391.791C457.603 391.41 457.295 391.098 456.913 391.093L409.811 391.093 409.811 389.326Z" fill="#E8420F" transform="matrix(1.00722 0 0 1 -2.95288 -218.388)"/><path d="M401.751 380.683 394.911 380.683C394.806 380.679 394.71 380.744 394.672 380.842L387.196 402.052C387.147 402.174 387.207 402.313 387.329 402.362 387.36 402.374 387.393 402.379 387.426 402.378L394.275 402.378C394.383 402.38 394.479 402.312 394.513 402.211L401.99 381.001C402.034 380.872 401.964 380.732 401.835 380.687 401.808 380.678 401.779 380.673 401.751 380.674" fill="#E8420F" transform="matrix(1.00722 0 0 1 -2.95288 -218.388)"/><path d="M387.673 374.93C391.223 375.893 394.883 376.389 398.561 376.406 399.506 376.406 400.478 376.362 401.468 376.282 401.595 376.273 401.694 376.17 401.698 376.043L401.698 369.99C401.694 369.853 401.58 369.746 401.443 369.75 401.436 369.75 401.43 369.75 401.424 369.751 396.867 369.859 392.315 369.333 387.903 368.187L387.85 368.187C387.698 368.132 387.532 368.212 387.477 368.363 387.469 368.386 387.464 368.41 387.461 368.435L387.461 368.435C387.457 368.464 387.457 368.494 387.461 368.523L387.461 374.709C387.458 374.82 387.531 374.918 387.638 374.948" fill="#E8420F" transform="matrix(1.00722 0 0 1 -2.95288 -218.388)"/><path d="M387.673 364.334C391.222 365.302 394.883 365.797 398.561 365.81 399.506 365.81 400.478 365.766 401.468 365.695 401.595 365.678 401.691 365.575 401.698 365.448L401.698 359.394C401.694 359.257 401.58 359.15 401.443 359.154 401.436 359.155 401.43 359.155 401.424 359.155 396.867 359.263 392.315 358.737 387.903 357.591L387.85 357.591C387.698 357.536 387.532 357.616 387.477 357.767 387.469 357.79 387.464 357.814 387.461 357.839L387.461 357.839C387.457 357.868 387.457 357.898 387.461 357.927L387.461 364.113C387.461 364.221 387.534 364.315 387.638 364.343" fill="#E8420F" transform="matrix(1.00722 0 0 1 -2.95288 -218.388)"/><path d="M365.174 379.004 307.731 379.004C305.119 379.009 303.003 381.128 303.003 383.741L303.003 397.518C303.003 400.134 305.124 402.255 307.74 402.255L365.182 402.255C367.798 402.26 369.923 400.143 369.928 397.527 369.928 397.524 369.928 397.521 369.928 397.518L369.928 383.741C369.928 381.128 367.812 379.009 365.2 379.004M362.549 394.778 310.409 394.778 310.409 386.365 362.549 386.365Z" fill="#E8420F" transform="matrix(1.00722 0 0 1 -2.95288 -218.388)"/><path d="M371.519 368.673C371.519 368.32 371.422 368.187 371.165 368.161 369.969 368.04 368.785 367.809 367.63 367.471 363 366.137 359.544 363.45 357.6 359.041 357.488 358.784 357.235 358.617 356.955 358.616L349.426 358.616C349.04 358.616 348.727 358.93 348.728 359.315 348.728 359.405 348.746 359.496 348.78 359.58 350.093 362.842 352.482 365.558 355.55 367.277L355.735 367.383C355.955 367.477 356.058 367.731 355.964 367.951 355.893 368.119 355.723 368.224 355.541 368.214L319.078 368.214C318.699 368.184 318.367 368.467 318.338 368.847 318.335 368.875 318.335 368.902 318.336 368.929 318.336 370.697 318.336 373.083 318.336 374.806 318.315 375.182 318.602 375.503 318.977 375.524 319.011 375.526 319.045 375.526 319.078 375.522L368.62 375.522C370.227 375.448 371.498 374.135 371.519 372.526L371.519 372.526 371.519 368.691" fill="#E8420F" transform="matrix(1.00722 0 0 1 -2.95288 -218.388)"/><path d="M329.082 358.095C329.206 357.971 329.224 357.856 329.126 357.741 328.952 357.603 328.728 357.543 328.508 357.574L319.989 357.574C319.557 357.566 319.133 357.675 318.76 357.892 318.69 357.935 318.625 357.984 318.566 358.042L301.262 374.948C301.145 375.043 301.128 375.216 301.224 375.333 301.235 375.347 301.248 375.36 301.262 375.372 301.386 375.513 301.563 375.522 301.881 375.522L310.109 375.522C310.383 375.526 310.658 375.508 310.93 375.469 311.267 375.428 311.579 375.272 311.814 375.027Z" fill="#E8420F" transform="matrix(1.00722 0 0 1 -2.95288 -218.388)"/><path d="M498.784 361.842 489.841 361.842 491.405 357.812C491.454 357.685 491.39 357.542 491.262 357.492 491.235 357.482 491.205 357.476 491.175 357.476L484.282 357.476C484.175 357.477 484.081 357.544 484.044 357.644L482.515 361.842 473.351 361.842C472.96 361.842 472.644 362.158 472.644 362.549L472.644 368.735C472.644 369.126 472.96 369.442 473.351 369.442L479.731 369.442 477.964 374.612 477.84 374.912C477.84 374.983 477.769 375.08 477.725 375.177L477.725 375.248 477.133 376.689C477.133 376.768 477.062 376.839 477.036 376.918L477.036 376.98C476.992 377.077 476.947 377.192 476.903 377.298L476.797 377.546 476.744 377.687C476.647 377.908 476.55 378.147 476.452 378.385L476.399 378.5 476.232 378.907 476.232 379.013 476.108 379.322 476.011 379.552C476.011 379.623 475.949 379.693 475.922 379.773 475.896 379.852 475.834 379.967 475.799 380.064L475.719 380.25 475.569 380.595C475.549 380.655 475.525 380.714 475.498 380.771L475.365 381.098 475.286 381.275C475.286 381.39 475.198 381.505 475.145 381.62 475.149 381.643 475.149 381.667 475.145 381.69 475.1 381.814 475.047 381.938 474.994 382.053L474.932 382.212 474.782 382.556C474.782 382.61 474.738 382.654 474.72 382.707 474.703 382.76 474.623 382.945 474.57 383.06L474.517 383.193 474.358 383.564 474.358 383.635 474.217 383.962 474.155 384.103C474.111 384.2 474.066 384.306 474.031 384.403L473.987 384.501 473.845 384.828C473.845 384.828 473.845 384.89 473.801 384.916L473.669 385.234C473.672 385.261 473.672 385.287 473.669 385.314 473.669 385.411 473.58 385.517 473.545 385.614L473.545 385.667C473.501 385.764 473.457 385.853 473.421 385.941 473.421 386.03 473.342 386.118 473.306 386.197 473.311 386.212 473.311 386.227 473.306 386.242L473.209 386.471 473.209 386.516C473.209 386.586 473.147 386.648 473.121 386.71 473.121 386.772 473.068 386.825 473.05 386.878L473.05 386.878 472.979 387.019 472.979 387.196C474.862 388 478.22 389.6 482.064 391.464 479.604 393.805 476.685 395.611 473.492 396.767 473.184 396.879 472.979 397.172 472.979 397.5L472.979 403.572C472.977 403.996 473.319 404.343 473.743 404.346 473.807 404.346 473.871 404.339 473.934 404.323 478.98 403.103 484.282 399.798 488.701 395.026 492.13 396.74 495.497 398.437 498.183 399.816 498.571 400.011 499.044 399.855 499.239 399.467 499.294 399.358 499.322 399.239 499.323 399.118L499.323 392.834C499.322 392.531 499.147 392.256 498.873 392.127L493.12 389.423C495.623 385.634 497.475 381.452 498.599 377.051 498.599 376.909 498.926 375.283 499.032 374.718 499.085 374.391 499.129 374.073 499.164 373.746 499.208 373.304 498.886 372.91 498.443 372.866 498.416 372.863 498.388 372.862 498.36 372.862L492.519 372.862C492.119 372.862 491.781 373.156 491.723 373.551 491.626 374.285 491.511 374.974 491.502 375.009 491.387 375.513 491.255 376.008 491.105 376.512L491.105 376.512C490.06 379.987 488.461 383.269 486.368 386.233L481.569 383.988C481.452 383.925 481.402 383.783 481.454 383.661L486.889 369.433 498.802 369.433C499.193 369.433 499.509 369.117 499.509 368.726L499.509 362.54C499.509 362.149 499.193 361.833 498.802 361.833" fill="#E8420F" transform="matrix(1.00722 0 0 1 -2.95288 -218.388)"/><path d="M542.971 379.181 533.815 379.181 533.815 371.51C533.817 371.43 533.856 371.354 533.921 371.307L542.988 365.059C543.057 365.015 543.098 364.938 543.094 364.855L543.094 358.183C543.099 357.798 542.79 357.482 542.405 357.476 542.402 357.476 542.399 357.476 542.396 357.476L503.168 357.476C502.777 357.476 502.461 357.793 502.461 358.183L502.461 364.281C502.461 364.672 502.777 364.988 503.168 364.988L530.307 364.988C530.444 364.99 530.552 365.103 530.551 365.239 530.549 365.325 530.504 365.403 530.43 365.448L526.409 367.798C526.333 367.841 526.285 367.922 526.286 368.01L526.286 379.181 502.743 379.181C502.587 379.181 502.461 379.307 502.461 379.463 502.461 379.466 502.461 379.47 502.461 379.472L502.461 386.79C502.456 386.946 502.578 387.076 502.734 387.081 502.737 387.081 502.741 387.081 502.743 387.081L526.286 387.081 526.286 394.566C526.291 394.698 526.188 394.808 526.056 394.814 526.053 394.814 526.05 394.814 526.047 394.814L524.05 394.814 503.83 394.814C503.693 394.813 503.582 394.922 503.581 395.059 503.581 395.1 503.591 395.14 503.609 395.176L507.047 402.158C507.091 402.238 507.176 402.289 507.268 402.29L527.594 402.29C531.01 402.29 533.78 399.521 533.78 396.104L533.78 387.072 542.935 387.072C543.092 387.072 543.218 386.946 543.218 386.79 543.218 386.787 543.218 386.783 543.218 386.781L543.218 379.472C543.222 379.316 543.1 379.186 542.944 379.181 542.941 379.181 542.938 379.181 542.935 379.181" fill="#E8420F" transform="matrix(1.00722 0 0 1 -2.95288 -218.388)"/><path d="M581.731 357.724 581.731 364.794C581.731 364.923 581.631 365.032 581.501 365.041L558.86 368.152C558.724 368.161 558.605 368.059 558.596 367.923 558.595 367.917 558.595 367.91 558.595 367.904L558.595 360.834C558.595 360.706 558.696 360.6 558.825 360.596L581.492 357.476C581.629 357.471 581.743 357.578 581.748 357.715 581.748 357.718 581.748 357.721 581.748 357.724" fill="#E8420F" transform="matrix(1.00722 0 0 1 -2.95288 -218.388)"/><path d="M581.492 369.751 558.842 372.862C558.714 372.866 558.613 372.972 558.613 373.101L558.613 380.17C558.617 380.307 558.732 380.414 558.868 380.41 558.871 380.409 558.874 380.409 558.878 380.409L567.061 379.287 567.061 401.557C567.061 401.928 567.361 402.228 567.733 402.228 567.735 402.228 567.739 402.228 567.741 402.228L573.786 402.228C574.157 402.228 574.458 401.928 574.458 401.557L574.458 378.235 581.528 377.263C581.657 377.253 581.757 377.145 581.757 377.016L581.757 369.946C581.757 369.814 581.651 369.707 581.52 369.706 581.513 369.706 581.507 369.706 581.501 369.707" fill="#E8420F" transform="matrix(1.00722 0 0 1 -2.95288 -218.388)"/><path d="M614.499 360.737C614.455 360.634 614.503 360.515 614.606 360.47 614.628 360.462 614.652 360.455 614.676 360.454L620.376 360.454C620.554 360.456 620.716 360.554 620.8 360.711 622.184 363.098 624.466 364.832 627.137 365.527L627.278 365.571C627.729 365.695 628.162 365.836 628.613 365.951 628.711 365.98 628.814 365.925 628.843 365.827 628.849 365.807 628.852 365.786 628.851 365.766L628.851 358.06C628.851 357.741 628.596 357.481 628.277 357.476L586.043 357.476C585.724 357.481 585.469 357.741 585.469 358.06L585.469 364.546C585.469 364.863 585.726 365.121 586.043 365.121L618.087 365.121C618.14 365.114 618.179 365.067 618.173 365.013 618.169 364.985 618.155 364.96 618.132 364.944 616.568 363.89 615.314 362.438 614.499 360.737" fill="#E8420F" transform="matrix(1.00722 0 0 1 -2.95288 -218.388)"/><path d="M628.171 369.292 586.459 369.292C586.068 369.292 585.752 369.608 585.752 369.999L585.752 376.565C585.752 376.95 586.065 377.263 586.45 377.263 586.453 377.263 586.456 377.263 586.459 377.263L614.738 377.263 614.738 394.549C614.738 394.682 614.633 394.792 614.499 394.796L592.45 394.796C592.313 394.795 592.202 394.905 592.201 395.042 592.201 395.082 592.211 395.122 592.229 395.158L595.632 402.096C595.674 402.173 595.756 402.22 595.844 402.219L615.958 402.219C619.374 402.219 622.144 399.45 622.144 396.033L622.144 377.245 628.162 377.245C628.559 377.241 628.878 376.917 628.878 376.521L628.878 370.016C628.878 369.62 628.559 369.296 628.162 369.292" fill="#E8420F" transform="matrix(1.00722 0 0 1 -2.95288 -218.388)"/></g></svg>